<svg width="1007" height="1026" viewBox="0 0 1007 1026" fill="none" xmlns="http://www.w3.org/2000/svg">
<g opacity="0.4">
<path opacity="0.5" d="M341.779 438.096L1000.02 258.332" stroke="#FFC045" stroke-width="0.15" stroke-miterlimit="10" stroke-linecap="round"/>
<path d="M867.828 91.3984L1006.2 338.016" stroke="#FFC045" stroke-width="0.26" stroke-miterlimit="10" stroke-linecap="round"/>
<path d="M1006.2 619.561L588.217 1012.32" stroke="#FFC045" stroke-width="0.26" stroke-miterlimit="10" stroke-linecap="round"/>
<path d="M1006.2 603.877L588.217 939.615" stroke="#FFC045" stroke-width="0.26" stroke-miterlimit="10" stroke-linecap="round"/>
<path d="M1 402.657L316.718 284.805" stroke="#FFC045" stroke-width="0.26" stroke-miterlimit="10" stroke-linecap="round"/>
<path d="M867.828 447.782L281.548 284.805" stroke="#FFC045" stroke-width="0.26" stroke-miterlimit="10" stroke-linecap="round"/>
<path d="M1 627.397L339 732.199" stroke="#FFC045" stroke-width="0.26" stroke-miterlimit="10" stroke-linecap="round"/>
<path d="M640.994 939.614L1 657.334" stroke="#FFC045" stroke-width="0.26" stroke-miterlimit="10" stroke-linecap="round"/>
<path d="M640.994 1012.32L1 687.27" stroke="#FFC045" stroke-width="0.26" stroke-miterlimit="10" stroke-linecap="round"/>
<path d="M616.793 406.467L1006.2 486.788" stroke="#FFC045" stroke-width="0.26" stroke-miterlimit="10" stroke-linecap="round"/>
<path d="M658.605 409.293L1 497.676" stroke="#FFC045" stroke-width="0.26" stroke-miterlimit="10" stroke-linecap="round"/>
<path d="M1 621.229L677.025 805.613" stroke="#FFC045" stroke-width="0.26" stroke-miterlimit="10" stroke-linecap="round"/>
<path d="M626.042 805.613L1006.2 582.271" stroke="#FFC045" stroke-width="0.26" stroke-miterlimit="10" stroke-linecap="round"/>
<path d="M932.019 112.783L1 446.628" stroke="#FFC045" stroke-width="0.26" stroke-miterlimit="10" stroke-linecap="round"/>
<path d="M339 518.418L1 525.251" stroke="#FFC045" stroke-width="0.26" stroke-miterlimit="10" stroke-linecap="round"/>
<path d="M281.548 518.418L1006.2 531.076" stroke="#FFC045" stroke-width="0.26" stroke-miterlimit="10" stroke-linecap="round"/>
<path d="M298.667 732.199L1006.2 553.271" stroke="#FFC045" stroke-width="0.26" stroke-miterlimit="10" stroke-linecap="round"/>
<g opacity="0.5">
<path d="M867.83 83.6826L1006.2 330.324" stroke="#FFC045" stroke-width="0.15" stroke-miterlimit="10" stroke-linecap="round"/>
<path d="M1006.2 611.867L588.216 1004.6" stroke="#FFC045" stroke-width="0.15" stroke-miterlimit="10" stroke-linecap="round"/>
<path d="M1006.2 596.186L588.216 931.898" stroke="#FFC045" stroke-width="0.15" stroke-miterlimit="10" stroke-linecap="round"/>
<path d="M0.999512 394.942L316.718 277.089" stroke="#FFC045" stroke-width="0.15" stroke-miterlimit="10" stroke-linecap="round"/>
<path d="M867.827 440.092L281.547 277.089" stroke="#FFC045" stroke-width="0.15" stroke-miterlimit="10" stroke-linecap="round"/>
<path d="M0.999512 619.706L338.999 724.482" stroke="#FFC045" stroke-width="0.15" stroke-miterlimit="10" stroke-linecap="round"/>
<path d="M640.994 931.897L0.999512 649.642" stroke="#FFC045" stroke-width="0.15" stroke-miterlimit="10" stroke-linecap="round"/>
<path d="M640.994 1004.6L0.999512 679.58" stroke="#FFC045" stroke-width="0.15" stroke-miterlimit="10" stroke-linecap="round"/>
<path d="M616.793 398.773L1006.2 479.071" stroke="#FFC045" stroke-width="0.15" stroke-miterlimit="10" stroke-linecap="round"/>
<path d="M658.604 401.6L0.999512 489.982" stroke="#FFC045" stroke-width="0.15" stroke-miterlimit="10" stroke-linecap="round"/>
<path d="M0.999512 613.538L677.024 797.899" stroke="#FFC045" stroke-width="0.15" stroke-miterlimit="10" stroke-linecap="round"/>
<path d="M626.042 797.897L1006.2 574.556" stroke="#FFC045" stroke-width="0.15" stroke-miterlimit="10" stroke-linecap="round"/>
<path d="M932.019 105.067L0.999512 438.912" stroke="#FFC045" stroke-width="0.15" stroke-miterlimit="10" stroke-linecap="round"/>
<path d="M338.999 510.729L0.999512 517.536" stroke="#FFC045" stroke-width="0.15" stroke-miterlimit="10" stroke-linecap="round"/>
<path d="M281.547 510.729L1006.19 523.385" stroke="#FFC045" stroke-width="0.15" stroke-miterlimit="10" stroke-linecap="round"/>
<path d="M298.667 724.482L1006.2 545.578" stroke="#FFC045" stroke-width="0.15" stroke-miterlimit="10" stroke-linecap="round"/>
</g>
<g opacity="0.5">
<path d="M867.828 97.293L1006.2 343.91" stroke="#FFC045" stroke-width="0.15" stroke-miterlimit="10" stroke-linecap="round"/>
<path d="M1006.2 625.478L588.216 1018.21" stroke="#FFC045" stroke-width="0.15" stroke-miterlimit="10" stroke-linecap="round"/>
<path d="M1006.2 609.794L588.216 945.507" stroke="#FFC045" stroke-width="0.15" stroke-miterlimit="10" stroke-linecap="round"/>
<path d="M0.999512 408.552L316.718 290.699" stroke="#FFC045" stroke-width="0.15" stroke-miterlimit="10" stroke-linecap="round"/>
<path d="M867.827 453.701L281.547 290.699" stroke="#FFC045" stroke-width="0.15" stroke-miterlimit="10" stroke-linecap="round"/>
<path d="M0.999512 633.316L338.999 738.092" stroke="#FFC045" stroke-width="0.15" stroke-miterlimit="10" stroke-linecap="round"/>
<path d="M640.994 945.507L0.999512 663.252" stroke="#FFC045" stroke-width="0.15" stroke-miterlimit="10" stroke-linecap="round"/>
<path d="M640.994 1018.21L0.999512 693.19" stroke="#FFC045" stroke-width="0.15" stroke-miterlimit="10" stroke-linecap="round"/>
<path d="M616.793 412.387L1006.2 492.684" stroke="#FFC045" stroke-width="0.15" stroke-miterlimit="10" stroke-linecap="round"/>
<path d="M658.604 415.21L0.999512 503.593" stroke="#FFC045" stroke-width="0.15" stroke-miterlimit="10" stroke-linecap="round"/>
<path d="M0.999512 627.125L677.024 811.511" stroke="#FFC045" stroke-width="0.15" stroke-miterlimit="10" stroke-linecap="round"/>
<path d="M626.042 811.508L1006.2 588.166" stroke="#FFC045" stroke-width="0.15" stroke-miterlimit="10" stroke-linecap="round"/>
<path d="M932.019 118.677L0.999512 452.522" stroke="#FFC045" stroke-width="0.15" stroke-miterlimit="10" stroke-linecap="round"/>
<path d="M338.999 524.339L0.999512 531.146" stroke="#FFC045" stroke-width="0.15" stroke-miterlimit="10" stroke-linecap="round"/>
<path d="M281.547 524.339L1006.2 536.996" stroke="#FFC045" stroke-width="0.15" stroke-miterlimit="10" stroke-linecap="round"/>
<path d="M298.667 738.092L1006.2 559.188" stroke="#FFC045" stroke-width="0.15" stroke-miterlimit="10" stroke-linecap="round"/>
</g>
<path d="M12.0923 399.216V692.948L21.4135 697.618V395.75L12.0923 399.216Z" stroke="#FFC045" stroke-width="0.26" stroke-miterlimit="10" stroke-linecap="round"/>
<path d="M21.4155 395.75L31.5238 397.889V694.595L21.4155 697.618" stroke="#FFC045" stroke-width="0.26" stroke-miterlimit="10" stroke-linecap="round"/>
<path d="M320.997 726.544V295.764L341.779 301.54V721.285L320.997 726.544Z" stroke="#FFC045" stroke-width="0.26" stroke-miterlimit="10" stroke-linecap="round"/>
<path d="M320.995 295.764L301.049 301.908V720.375L320.995 726.544V295.764Z" stroke="#FFC045" stroke-width="0.26" stroke-miterlimit="10" stroke-linecap="round"/>
<path d="M418.491 443.112V735.1L433.593 739.204V441.121L418.491 443.112Z" stroke="#FFC045" stroke-width="0.26" stroke-miterlimit="10" stroke-linecap="round"/>
<path d="M433.592 441.121L448.914 443.505V733.698L433.592 739.204" stroke="#FFC045" stroke-width="0.26" stroke-miterlimit="10" stroke-linecap="round"/>
<path d="M642.2 796.103V411.677L620.826 414.38V790.278L642.2 796.103Z" stroke="#FFC045" stroke-width="0.26" stroke-miterlimit="10" stroke-linecap="round"/>
<path d="M642.199 411.677L661.604 415.707V784.699L642.199 796.103V411.677Z" stroke="#FFC045" stroke-width="0.26" stroke-miterlimit="10" stroke-linecap="round"/>
<path d="M888.564 128.363V730.109L900.172 719.197V149.008L888.564 128.363Z" stroke="#FFC045" stroke-width="0.51" stroke-miterlimit="10" stroke-linecap="round"/>
<path d="M888.562 128.363L870.461 134.852V727.603L888.562 730.109V128.363Z" stroke="#FFC045" stroke-width="0.51" stroke-miterlimit="10" stroke-linecap="round"/>
<path d="M988.49 306.459V636.2L981.554 642.737V294.071L988.49 306.459Z" stroke="#FFC045" stroke-width="0.26" stroke-miterlimit="10" stroke-linecap="round"/>
<path d="M981.553 294.071L970.657 297.758V642.737H981.553" stroke="#FFC045" stroke-width="0.26" stroke-miterlimit="10" stroke-linecap="round"/>
<path d="M556.614 247.395V684.444L572.257 687.294V241.791L556.614 247.395Z" stroke="#FFC045" stroke-width="0.26" stroke-miterlimit="10" stroke-linecap="round"/>
<path d="M572.251 241.791L588.214 250.344V679.797L572.251 687.294V241.791Z" stroke="#FFC045" stroke-width="0.26" stroke-miterlimit="10" stroke-linecap="round"/>
<path d="M903.786 732.199L1 608.03" stroke="#FFC045" stroke-width="0.26" stroke-miterlimit="10" stroke-linecap="round"/>
<path d="M970.66 706.512L821.003 691.077V448.368" stroke="#FFC045" stroke-width="0.51" stroke-miterlimit="10" stroke-linecap="round"/>
<path d="M802.262 195.341L634.8 250.911" stroke="#FFC045" stroke-width="0.51" stroke-miterlimit="10" stroke-linecap="round"/>
<path d="M645.349 239.533V411.678" stroke="#FFC045" stroke-width="0.51" stroke-miterlimit="10" stroke-linecap="round"/>
<path d="M645.349 247.42L679.585 262.338L794.17 226.7" stroke="#FFC045" stroke-width="0.51" stroke-miterlimit="10" stroke-linecap="round"/>
<path d="M679.583 262.341V417.429" stroke="#FFC045" stroke-width="0.51" stroke-miterlimit="10" stroke-linecap="round"/>
<path d="M691.706 421.875V270.891L794.166 239.53" stroke="#FFC045" stroke-width="0.51" stroke-miterlimit="10" stroke-linecap="round"/>
<path d="M691.706 270.895L700.265 275.884L794.166 247.373" stroke="#FFC045" stroke-width="0.51" stroke-miterlimit="10" stroke-linecap="round"/>
<path d="M700.267 275.881V423.694" stroke="#FFC045" stroke-width="0.51" stroke-miterlimit="10" stroke-linecap="round"/>
<path d="M754.276 251.746V434.804" stroke="#FFC045" stroke-width="0.51" stroke-miterlimit="10" stroke-linecap="round"/>
<path d="M762.1 436.424V249.336L768.47 255.161V437.727" stroke="#FFC045" stroke-width="0.51" stroke-linecap="round" stroke-linejoin="round"/>
<path d="M915.863 252.484V411.678L960.33 434.24V310.931L915.863 252.484Z" stroke="#FFC045" stroke-width="0.51" stroke-miterlimit="10" stroke-linecap="round"/>
<path d="M960.33 310.931H947.714L915.863 277.677" stroke="#FFC045" stroke-width="0.51" stroke-miterlimit="10" stroke-linecap="round"/>
<path d="M947.712 310.929V427.453" stroke="#FFC045" stroke-width="0.51" stroke-miterlimit="10" stroke-linecap="round"/>
<path d="M943.434 425.686V313.783L915.863 284.805" stroke="#FFC045" stroke-width="0.51" stroke-miterlimit="10" stroke-linecap="round"/>
<path d="M943.434 313.782H939.991L915.863 290.629" stroke="#FFC045" stroke-width="0.51" stroke-miterlimit="10" stroke-linecap="round"/>
<path d="M939.99 313.78V423.915" stroke="#FFC045" stroke-width="0.51" stroke-miterlimit="10" stroke-linecap="round"/>
<path d="M600.832 785.656V464.543L460.768 479.143V746.626L496.7 732.198V475.406" stroke="#FFC045" stroke-width="0.51" stroke-miterlimit="10" stroke-linecap="round"/>
<path d="M496.673 732.199L600.83 759.039" stroke="#FFC045" stroke-width="0.51" stroke-miterlimit="10" stroke-linecap="round"/>
<path d="M543.553 501.019L508.36 503.869V569.075H543.553V501.019Z" stroke="#FFC045" stroke-width="0.51" stroke-miterlimit="10" stroke-linecap="round"/>
<path d="M551.152 501.02V569.076H594.413V497.677L551.152 501.02Z" stroke="#FFC045" stroke-width="0.51" stroke-miterlimit="10" stroke-linecap="round"/>
<path d="M508.36 577.504H543.553V640.252L508.36 637.868V577.504Z" stroke="#FFC045" stroke-width="0.51" stroke-miterlimit="10" stroke-linecap="round"/>
<path d="M551.152 577.504V640.252L594.413 642.734V578.462L551.152 577.504Z" stroke="#FFC045" stroke-width="0.51" stroke-miterlimit="10" stroke-linecap="round"/>
<path d="M683.568 464.543V525.447L805.826 527.585V479.854L683.568 464.543Z" stroke="#FFC045" stroke-width="0.51" stroke-miterlimit="10" stroke-linecap="round"/>
<path d="M792.103 527.34V478.135" stroke="#FFC045" stroke-width="0.51" stroke-miterlimit="10" stroke-linecap="round"/>
<path d="M740.456 471.67V526.455" stroke="#FFC045" stroke-width="0.51" stroke-miterlimit="10" stroke-linecap="round"/>
<path d="M750.467 472.925V526.457" stroke="#FFC045" stroke-width="0.51" stroke-miterlimit="10" stroke-linecap="round"/>
<path d="M733.274 471.67V526.356" stroke="#FFC045" stroke-width="0.51" stroke-miterlimit="10" stroke-linecap="round"/>
<path d="M915.863 493.398V529.504L960.33 530.29V499.69L915.863 493.398Z" stroke="#FFC045" stroke-width="0.51" stroke-miterlimit="10" stroke-linecap="round"/>
<path d="M953.491 498.731V530.166" stroke="#FFC045" stroke-width="0.51" stroke-miterlimit="10" stroke-linecap="round"/>
<path d="M938.093 496.544V529.897" stroke="#FFC045" stroke-width="0.51" stroke-miterlimit="10" stroke-linecap="round"/>
<path d="M932.022 496.053V529.798" stroke="#FFC045" stroke-width="0.51" stroke-miterlimit="10" stroke-linecap="round"/>
<path d="M928.231 495.143V529.724" stroke="#FFC045" stroke-width="0.51" stroke-miterlimit="10" stroke-linecap="round"/>
<path d="M12.0923 392.187V662.251L606.932 924.573L888.561 698.062L821.001 691.081L642.2 796.103V411.676L355.307 450.068V717.871" stroke="#FFC045" stroke-width="1.03" stroke-miterlimit="10" stroke-linecap="round"/>
<path d="M888.587 112.78V462.527" stroke="#FFC045" stroke-width="1.03" stroke-miterlimit="10" stroke-linecap="round"/>
<path d="M301.712 290.407V519.205H320.995V726.547L355.304 717.87L460.764 746.627" stroke="#FFC045" stroke-width="1.03" stroke-miterlimit="10" stroke-linecap="round"/>
<path d="M105.282 659.719L31.5237 670.115V525.252L103.88 523.163L105.282 659.719ZM105.282 659.719L321 726.547" stroke="#FFC045" stroke-width="1.03" stroke-miterlimit="10" stroke-linecap="round"/>
<path d="M12.0923 662.25V692.948L606.735 994.915V924.573" stroke="#FFC045" stroke-width="1.03" stroke-miterlimit="10" stroke-linecap="round"/>
<path d="M606.735 994.914L988.489 636.197V306.456L888.561 128.363L556.612 247.395V361.265L301.715 290.407L12.0923 399.215" stroke="#FFC045" stroke-width="1.03" stroke-miterlimit="10" stroke-linecap="round"/>
<path d="M556.614 361.268V423.057" stroke="#FFC045" stroke-width="1.03" stroke-miterlimit="10" stroke-linecap="round"/>
<path d="M888.587 698.061V462.528" stroke="#FFC045" stroke-width="1.03" stroke-miterlimit="10" stroke-linecap="round"/>
<path d="M642.199 411.677L819.992 448.372L821 691.081" stroke="#FFC045" stroke-width="1.03" stroke-miterlimit="10" stroke-linecap="round"/>
<path d="M357.618 344.97V411.675L536.419 446.625V390.907L357.618 344.97Z" stroke="#FFC045" stroke-width="0.51" stroke-miterlimit="10" stroke-linecap="round"/>
<path d="M536.419 390.906L522.006 394.568L522.719 443.946" stroke="#FFC045" stroke-width="0.51" stroke-miterlimit="10" stroke-linecap="round"/>
<path d="M521.983 394.545L357.618 353.696" stroke="#FFC045" stroke-width="0.51" stroke-miterlimit="10" stroke-linecap="round"/>
<path d="M517.063 442.841V397.666L357.618 358.464" stroke="#FFC045" stroke-width="0.51" stroke-miterlimit="10" stroke-linecap="round"/>
<path d="M517.064 397.667H513.105V442.08" stroke="#FFC045" stroke-width="0.51" stroke-miterlimit="10" stroke-linecap="round"/>
<path d="M479.901 388.525V435.568" stroke="#FFC045" stroke-width="0.51" stroke-miterlimit="10" stroke-linecap="round"/>
<path d="M474.366 387.171V434.067" stroke="#FFC045" stroke-width="0.51" stroke-miterlimit="10" stroke-linecap="round"/>
<path d="M470.557 387.171V433.919" stroke="#FFC045" stroke-width="0.51" stroke-miterlimit="10" stroke-linecap="round"/>
<path d="M418.491 374.12V423.571" stroke="#FFC045" stroke-width="0.51" stroke-miterlimit="10" stroke-linecap="round"/>
<path d="M410.867 422.074V371.542" stroke="#FFC045" stroke-width="0.51" stroke-miterlimit="10" stroke-linecap="round"/>
<path d="M406.391 370.433V421.014" stroke="#FFC045" stroke-width="0.51" stroke-miterlimit="10" stroke-linecap="round"/>
<path d="M301.718 519.204L103.881 523.161" stroke="#FFC045" stroke-width="1.03" stroke-miterlimit="10" stroke-linecap="round"/>
<path d="M249.203 357.626V464.321" stroke="#FFC045" stroke-width="0.51" stroke-miterlimit="10" stroke-linecap="round"/>
<path d="M170.015 386.016V474.963" stroke="#FFC045" stroke-width="0.51" stroke-miterlimit="10" stroke-linecap="round"/>
<path d="M121.93 403.27V481.428" stroke="#FFC045" stroke-width="0.51" stroke-miterlimit="10" stroke-linecap="round"/>
<path d="M58.064 426.153V491.974" stroke="#FFC045" stroke-width="0.51" stroke-miterlimit="10" stroke-linecap="round"/>
<path d="M58.064 426.153L67.582 427.48V488.729" stroke="#FFC045" stroke-width="0.51" stroke-miterlimit="10" stroke-linecap="round"/>
<path d="M67.5798 427.481L121.933 410.006" stroke="#FFC045" stroke-width="0.51" stroke-miterlimit="10" stroke-linecap="round"/>
<path d="M170.015 386.016L182.878 387.564V472.973" stroke="#FFC045" stroke-width="0.51" stroke-miterlimit="10" stroke-linecap="round"/>
<path d="M182.878 387.566L249.209 364.757" stroke="#FFC045" stroke-width="0.51" stroke-miterlimit="10" stroke-linecap="round"/>
<path d="M186.909 472.703V390.047L249.206 369.155" stroke="#FFC045" stroke-width="0.51" stroke-miterlimit="10" stroke-linecap="round"/>
<path d="M222.352 378.152V467.936" stroke="#FFC045" stroke-width="0.51" stroke-miterlimit="10" stroke-linecap="round"/>
<path d="M227.466 467.248V376.432L231.132 378.152V466.756" stroke="#FFC045" stroke-width="0.51" stroke-miterlimit="10" stroke-linecap="round"/>
<path d="M186.909 390.048L189.761 391.251V472.311" stroke="#FFC045" stroke-width="0.51" stroke-miterlimit="10" stroke-linecap="round"/>
<path d="M189.763 391.25L222.35 380.779" stroke="#FFC045" stroke-width="0.51" stroke-miterlimit="10" stroke-linecap="round"/>
<path d="M231.131 378.152L249.208 372.007" stroke="#FFC045" stroke-width="0.51" stroke-miterlimit="10" stroke-linecap="round"/>
<path d="M70.9189 488.286V429.495L121.928 414.281" stroke="#FFC045" stroke-width="0.51" stroke-miterlimit="10" stroke-linecap="round"/>
<path d="M96.4236 421.901V484.87" stroke="#FFC045" stroke-width="0.51" stroke-miterlimit="10" stroke-linecap="round"/>
<path d="M99.8206 484.403V420.868L102.28 421.901V484.084" stroke="#FFC045" stroke-width="0.51" stroke-miterlimit="10" stroke-linecap="round"/>
<path d="M70.9189 429.495L73.2063 430.331V487.967" stroke="#FFC045" stroke-width="0.51" stroke-miterlimit="10" stroke-linecap="round"/>
<path d="M73.2078 430.329L96.4249 423.546" stroke="#FFC045" stroke-width="0.51" stroke-miterlimit="10" stroke-linecap="round"/>
<path d="M102.279 421.901L121.93 416.077" stroke="#FFC045" stroke-width="0.51" stroke-miterlimit="10" stroke-linecap="round"/>
<path d="M21.3906 313.78V790.769" stroke="#FFC045" stroke-width="0.15" stroke-miterlimit="10" stroke-linecap="round"/>
<path d="M301.029 224.587V936.05" stroke="#FFC045" stroke-width="0.15" stroke-miterlimit="10" stroke-linecap="round"/>
<path d="M320.997 232.429V956.72" stroke="#FFC045" stroke-width="0.15" stroke-miterlimit="10" stroke-linecap="round"/>
<path d="M555.777 217.461V1025" stroke="#FFC045" stroke-width="0.15" stroke-miterlimit="10" stroke-linecap="round"/>
<path d="M888.587 75.2998V804.386" stroke="#FFC045" stroke-width="0.15" stroke-miterlimit="10" stroke-linecap="round"/>
<path d="M433.592 168.179V774.546" stroke="#FFC045" stroke-width="0.15" stroke-miterlimit="10" stroke-linecap="round"/>
<path d="M988.487 238.226V708.455" stroke="#FFC045" stroke-width="0.15" stroke-miterlimit="10" stroke-linecap="round"/>
<path d="M642.891 355.047V825.276" stroke="#FFC045" stroke-width="0.15" stroke-miterlimit="10" stroke-linecap="round"/>
<path d="M1 369.205L928.233 1" stroke="#FFC045" stroke-width="0.15" stroke-miterlimit="10" stroke-linecap="round"/>
<path d="M1006.19 294.07L837.648 1" stroke="#FFC045" stroke-width="0.15" stroke-miterlimit="10" stroke-linecap="round"/>
<path d="M794.168 190.722V442.451" stroke="#FFC045" stroke-width="0.51" stroke-miterlimit="10" stroke-linecap="round"/>
<path d="M123.679 537H301.054V649.642L123.679 624.915V537Z" stroke="#FFC045" stroke-width="0.51" stroke-miterlimit="10" stroke-linecap="round"/>
<path d="M134.919 537V623.122L123.679 624.915" stroke="#FFC045" stroke-width="0.51" stroke-miterlimit="10" stroke-linecap="round"/>
<path d="M134.918 623.122L301.028 644.997" stroke="#FFC045" stroke-width="0.51" stroke-miterlimit="10" stroke-linecap="round"/>
<path d="M140.301 537V619.705L301.049 638.458" stroke="#FFC045" stroke-width="0.51" stroke-miterlimit="10" stroke-linecap="round"/>
<path d="M212.364 537V628.11" stroke="#FFC045" stroke-width="0.51" stroke-miterlimit="10" stroke-linecap="round"/>
<path d="M225.67 629.07V537" stroke="#FFC045" stroke-width="0.51" stroke-miterlimit="10" stroke-linecap="round"/>
<path d="M220.676 537V629.07" stroke="#FFC045" stroke-width="0.51" stroke-miterlimit="10" stroke-linecap="round"/>
<path d="M140.301 619.705H144.359V537" stroke="#FFC045" stroke-width="0.51" stroke-miterlimit="10" stroke-linecap="round"/>
</g>
</svg>
