<svg width="617" height="520" viewBox="0 0 617 520" fill="none" xmlns="http://www.w3.org/2000/svg">
<path d="M285.615 112.015V209.703" stroke="#FFC045" stroke-width="0.5" stroke-linecap="round" stroke-linejoin="round"/>
<path d="M221.851 238.311L285.609 244.522L391.329 231.033" stroke="#FFC045" stroke-width="0.5" stroke-linecap="round" stroke-linejoin="round"/>
<path d="M285.615 244.521V380.467" stroke="#FFC045" stroke-width="0.5" stroke-linecap="round" stroke-linejoin="round"/>
<path d="M302.916 352.57L285.615 350.648" stroke="#FFC045" stroke-width="0.5" stroke-linecap="round" stroke-linejoin="round"/>
<path d="M285.61 128.873L150.681 180.769V350.649L285.61 372.333" stroke="#FFC045" stroke-width="0.5" stroke-linecap="round" stroke-linejoin="round"/>
<path d="M391.336 414.711L542.391 374.928V153.96L391.336 66.6104V414.711Z" stroke="#FFC045" stroke-width="0.5" stroke-linecap="round" stroke-linejoin="round"/>
<path d="M542.393 341.199L391.337 362.389L370.79 360.102" stroke="#FFC045" stroke-width="0.5" stroke-linecap="round" stroke-linejoin="round"/>
<path d="M285.61 112.014L282.206 107.386L391.33 59.707L547.045 151.371L542.386 153.959L391.33 66.6094L285.61 112.014Z" stroke="#FFC045" stroke-width="0.5" stroke-linecap="round" stroke-linejoin="round"/>
<path d="M391.336 59.707V66.6094" stroke="#FFC045" stroke-width="0.5" stroke-linecap="round" stroke-linejoin="round"/>
<path d="M391.332 213.179L335.727 199.433L221.851 222.768V238.308L335.501 220.954L391.329 231.03L391.332 213.179Z" stroke="#FFC045" stroke-width="0.5" stroke-linecap="round" stroke-linejoin="round"/>
<path d="M335.739 199.432L335.514 220.957" stroke="#FFC045" stroke-width="0.5" stroke-linecap="round" stroke-linejoin="round"/>
<path d="M285.61 345.871L150.681 333.271" stroke="#FFC045" stroke-width="0.5" stroke-linecap="round" stroke-linejoin="round"/>
<path d="M370.793 389.991V264.222L302.921 268.167V378.144L370.793 389.991Z" stroke="#FFC045" stroke-width="0.5" stroke-linecap="round" stroke-linejoin="round"/>
<path d="M370.787 410.747L324.318 422.624L258.097 406.104V395.051L279.261 391.886V381.827L305.741 377.698V269.376L370.79 265.375" stroke="#FFC045" stroke-width="0.5" stroke-linecap="round" stroke-linejoin="round"/>
<path d="M279.26 381.83L347.977 394.773L370.788 389.989V410.748L391.337 414.707" stroke="#FFC045" stroke-width="0.5" stroke-linecap="round" stroke-linejoin="round"/>
<path d="M347.977 394.773V405.636L279.26 391.89" stroke="#FFC045" stroke-width="0.5" stroke-linecap="round" stroke-linejoin="round"/>
<path d="M347.975 405.637L324.318 409.784L258.097 395.056" stroke="#FFC045" stroke-width="0.5" stroke-linecap="round" stroke-linejoin="round"/>
<path d="M324.315 402.421V430.836" stroke="#FFC045" stroke-width="0.5" stroke-linecap="round" stroke-linejoin="round"/>
<path d="M302.921 268.167L305.744 269.385" stroke="#FFC045" stroke-width="0.5" stroke-linecap="round" stroke-linejoin="round"/>
<path d="M313.132 276.969L362.038 275.043V292.588H313.132V276.969Z" stroke="#FFC045" stroke-width="0.5" stroke-linecap="round" stroke-linejoin="round"/>
<path d="M313.132 301.806V315.929L362.038 317.378V302.313L313.132 301.806Z" stroke="#FFC045" stroke-width="0.5" stroke-linecap="round" stroke-linejoin="round"/>
<path d="M320.243 234.412C320.243 236.268 311.231 237.785 300.114 237.785C288.997 237.785 279.984 236.274 279.984 234.412C279.984 232.549 288.997 231.04 300.114 231.04C311.231 231.04 320.243 232.544 320.243 234.412Z" stroke="#FFC045" stroke-width="0.5" stroke-linecap="round" stroke-linejoin="round"/>
<path d="M374.569 299.279L387.649 298.89V316.983L374.569 316.606V299.279Z" stroke="#FFC045" stroke-width="0.5" stroke-linecap="round" stroke-linejoin="round"/>
<path d="M377.376 302.054V306.222L385.004 306.071V301.798L377.376 302.054Z" stroke="#FFC045" stroke-width="0.5" stroke-linecap="round" stroke-linejoin="round"/>
<path d="M385.167 308.89H377.376" stroke="#FFC045" stroke-width="0.5" stroke-linecap="round" stroke-linejoin="round"/>
<path d="M385.004 311.419H377.376" stroke="#FFC045" stroke-width="0.5" stroke-linecap="round" stroke-linejoin="round"/>
<path d="M385.004 313.785L377.376 313.646" stroke="#FFC045" stroke-width="0.5" stroke-linecap="round" stroke-linejoin="round"/>
<path d="M435.157 257.027V331.33L514.572 326.299V268.167L435.157 257.027Z" stroke="#FFC045" stroke-width="0.5" stroke-linecap="round" stroke-linejoin="round"/>
<path d="M435.157 329.982L510.698 325.918V267.623" stroke="#FFC045" stroke-width="0.5" stroke-linecap="round" stroke-linejoin="round"/>
<path d="M510.692 325.919L514.565 326.307" stroke="#FFC045" stroke-width="0.5" stroke-linecap="round" stroke-linejoin="round"/>
<path d="M478.254 263.072V327.662" stroke="#FFC045" stroke-width="0.5" stroke-linecap="round" stroke-linejoin="round"/>
<path d="M480.12 327.562V263.325" stroke="#FFC045" stroke-width="0.5" stroke-linecap="round" stroke-linejoin="round"/>
<path d="M514.572 230.965L435.157 211.475V133.117L514.572 169.758V230.965Z" stroke="#FFC045" stroke-width="0.5" stroke-linecap="round" stroke-linejoin="round"/>
<path d="M510.698 230.012V170.72L435.157 137.55" stroke="#FFC045" stroke-width="0.5" stroke-linecap="round" stroke-linejoin="round"/>
<path d="M510.692 170.719L514.565 169.755" stroke="#FFC045" stroke-width="0.5" stroke-linecap="round" stroke-linejoin="round"/>
<path d="M480.12 222.51V157.294" stroke="#FFC045" stroke-width="0.5" stroke-linecap="round" stroke-linejoin="round"/>
<path d="M478.254 222.052V156.476" stroke="#FFC045" stroke-width="0.5" stroke-linecap="round" stroke-linejoin="round"/>
<path d="M368.17 69.8284V59.7082L307.068 26.2969L253.732 57.9276V64.415L273.585 72.2282V129.423" stroke="#FFC045" stroke-width="0.5" stroke-linecap="round" stroke-linejoin="round"/>
<path d="M278.697 127.436V69.5244L273.583 72.2291" stroke="#FFC045" stroke-width="0.5" stroke-linecap="round" stroke-linejoin="round"/>
<path d="M278.704 69.5244L318.108 86.6544" stroke="#FFC045" stroke-width="0.5" stroke-linecap="round" stroke-linejoin="round"/>
<path d="M318.115 91.7035V48.9356L325.14 45.2617V88.6341" stroke="#FFC045" stroke-width="0.5" stroke-linecap="round" stroke-linejoin="round"/>
<path d="M325.129 45.2622L307.09 35.1738L253.732 64.4167" stroke="#FFC045" stroke-width="0.5" stroke-linecap="round" stroke-linejoin="round"/>
<path d="M307.07 26.3027L307.09 35.1726" stroke="#FFC045" stroke-width="0.5" stroke-linecap="round" stroke-linejoin="round"/>
<path d="M254.569 266.442V323.155L168.759 319.443V274.417L254.569 266.442Z" stroke="#FFC045" stroke-width="0.5" stroke-linecap="round" stroke-linejoin="round"/>
<path d="M168.743 274.417L171.656 275.173L254.553 267.5" stroke="#FFC045" stroke-width="0.5" stroke-linecap="round" stroke-linejoin="round"/>
<path d="M171.674 275.173V319.567" stroke="#FFC045" stroke-width="0.5" stroke-linecap="round" stroke-linejoin="round"/>
<path d="M209.434 271.678V321.202" stroke="#FFC045" stroke-width="0.5" stroke-linecap="round" stroke-linejoin="round"/>
<path d="M207.428 271.863V321.115" stroke="#FFC045" stroke-width="0.5" stroke-linecap="round" stroke-linejoin="round"/>
<path d="M168.743 229.167V188.107L254.553 158.189V210.193L168.743 229.167Z" stroke="#FFC045" stroke-width="0.5" stroke-linecap="round" stroke-linejoin="round"/>
<path d="M209.434 220.175V176.24" stroke="#FFC045" stroke-width="0.5" stroke-linecap="round" stroke-linejoin="round"/>
<path d="M207.428 220.617V176.924" stroke="#FFC045" stroke-width="0.5" stroke-linecap="round" stroke-linejoin="round"/>
<path d="M254.56 160.858L171.258 189.246V228.613" stroke="#FFC045" stroke-width="0.5" stroke-linecap="round" stroke-linejoin="round"/>
<path d="M285.613 124.748L147.149 178.577L150.683 180.776" stroke="#FFC045" stroke-width="0.5" stroke-linecap="round" stroke-linejoin="round"/>
<path d="M168.759 188.109L171.267 189.248" stroke="#FFC045" stroke-width="0.5" stroke-linecap="round" stroke-linejoin="round"/>
<path d="M302.258 131.962V193.045L327.86 187.281V122.284L302.258 131.962Z" stroke="#FFC045" stroke-width="0.5" stroke-linecap="round" stroke-linejoin="round"/>
<path d="M368.169 108.244L336.701 119.567V185.91L368.169 179.397V108.244Z" stroke="#FFC045" stroke-width="0.5" stroke-linecap="round" stroke-linejoin="round"/>
<path d="M305.836 192.299V134.287L327.866 126.782" stroke="#FFC045" stroke-width="0.5" stroke-linecap="round" stroke-linejoin="round"/>
<path d="M302.258 131.962L305.834 134.287" stroke="#FFC045" stroke-width="0.5" stroke-linecap="round" stroke-linejoin="round"/>
<path d="M336.701 119.569L341.783 122.07L368.169 113.055" stroke="#FFC045" stroke-width="0.5" stroke-linecap="round" stroke-linejoin="round"/>
<path d="M341.792 122.069V184.785" stroke="#FFC045" stroke-width="0.5" stroke-linecap="round" stroke-linejoin="round"/>
<path d="M542.398 374.929L607.876 380.467V392.93L385.016 490.999L21.4684 370.853V360.864L150.692 350.648" stroke="#FFC045" stroke-width="0.5" stroke-linecap="round" stroke-linejoin="round"/>
<path d="M607.876 380.467L385.016 466.965L21.4684 360.865" stroke="#FFC045" stroke-width="0.5" stroke-linecap="round" stroke-linejoin="round"/>
<path d="M385.011 466.964V490.996" stroke="#FFC045" stroke-width="0.5" stroke-linecap="round" stroke-linejoin="round"/>
<path d="M542.39 96.0469V442.395" stroke="#FFC045" stroke-width="0.25" stroke-linecap="round" stroke-linejoin="round"/>
<path d="M542.39 374.929L616.994 381.228" stroke="#FFC045" stroke-width="0.25" stroke-linecap="round" stroke-linejoin="round"/>
<path d="M607.867 372.334V402.42" stroke="#FFC045" stroke-width="0.25" stroke-linecap="round" stroke-linejoin="round"/>
<path d="M339.031 484.827L617 376.846" stroke="#FFC045" stroke-width="0.25" stroke-linecap="round" stroke-linejoin="round"/>
<path d="M339.031 511.227L617 388.944" stroke="#FFC045" stroke-width="0.25" stroke-linecap="round" stroke-linejoin="round"/>
<path d="M1 354.894L431.088 480.413" stroke="#FFC045" stroke-width="0.25" stroke-linecap="round" stroke-linejoin="round"/>
<path d="M2.80457 364.688L428.204 505.274" stroke="#FFC045" stroke-width="0.25" stroke-linecap="round" stroke-linejoin="round"/>
<path d="M43.4639 352.57L405.704 442.931" stroke="#FFC045" stroke-width="0.25" stroke-linecap="round" stroke-linejoin="round"/>
<path d="M314.659 425.096L381.927 407.903" stroke="#FFC045" stroke-width="0.25" stroke-linecap="round" stroke-linejoin="round"/>
<path d="M198.636 381.83L405.707 427.883" stroke="#FFC045" stroke-width="0.25" stroke-linecap="round" stroke-linejoin="round"/>
<path d="M258.097 389.99V409.784" stroke="#FFC045" stroke-width="0.25" stroke-linecap="round" stroke-linejoin="round"/>
<path d="M249.197 396.385L258.09 395.055" stroke="#FFC045" stroke-width="0.25" stroke-linecap="round" stroke-linejoin="round"/>
<path d="M258.09 406.108L249.197 407.904" stroke="#FFC045" stroke-width="0.25" stroke-linecap="round" stroke-linejoin="round"/>
<path d="M324.314 409.783L314.659 411.475" stroke="#FFC045" stroke-width="0.25" stroke-linecap="round" stroke-linejoin="round"/>
<path d="M385.011 447.577V520" stroke="#FFC045" stroke-width="0.25" stroke-linecap="round" stroke-linejoin="round"/>
<path d="M381.109 249.445L602.092 280.444" stroke="#FFC045" stroke-width="0.25" stroke-linecap="round" stroke-linejoin="round"/>
<path d="M381.109 334.761L591.094 321.457" stroke="#FFC045" stroke-width="0.25" stroke-linecap="round" stroke-linejoin="round"/>
<path d="M290.103 0.113281L593.788 178.881" stroke="#FFC045" stroke-width="0.25" stroke-linecap="round" stroke-linejoin="round"/>
<path d="M276.144 110.037L527.993 0" stroke="#FFC045" stroke-width="0.25" stroke-linecap="round" stroke-linejoin="round"/>
<path d="M593.788 361.393L196.138 466.12" stroke="#FFC045" stroke-width="0.25" stroke-linecap="round" stroke-linejoin="round"/>
<path d="M381.279 363.799L593.783 333.991" stroke="#FFC045" stroke-width="0.25" stroke-linecap="round" stroke-linejoin="round"/>
<path d="M373.998 360.462L401.79 363.547" stroke="#FFC045" stroke-width="0.25" stroke-linecap="round" stroke-linejoin="round"/>
<path d="M280.386 350.069L286.232 350.718" stroke="#FFC045" stroke-width="0.25" stroke-linecap="round" stroke-linejoin="round"/>
<path d="M92.5146 346.658L403.097 405.156" stroke="#FFC045" stroke-width="0.25" stroke-linecap="round" stroke-linejoin="round"/>
<path d="M351.013 394.139L339.031 396.651" stroke="#FFC045" stroke-width="0.25" stroke-linecap="round" stroke-linejoin="round"/>
<path d="M294.264 379.491L273.29 382.761" stroke="#FFC045" stroke-width="0.25" stroke-linecap="round" stroke-linejoin="round"/>
<path d="M347.977 92.8926L593.782 206.303" stroke="#FFC045" stroke-width="0.25" stroke-linecap="round" stroke-linejoin="round"/>
<path d="M607.867 392.929L616.994 393.919" stroke="#FFC045" stroke-width="0.25" stroke-linecap="round" stroke-linejoin="round"/>
<path d="M377.037 411.955L552.835 445.824" stroke="#FFC045" stroke-width="0.25" stroke-linecap="round" stroke-linejoin="round"/>
<path d="M279.383 245.315L403.09 229.531" stroke="#FFC045" stroke-width="0.25" stroke-linecap="round" stroke-linejoin="round"/>
<path d="M313.132 216.918L403.095 233.156" stroke="#FFC045" stroke-width="0.25" stroke-linecap="round" stroke-linejoin="round"/>
<path d="M313.132 193.844L363.524 206.303" stroke="#FFC045" stroke-width="0.25" stroke-linecap="round" stroke-linejoin="round"/>
<path d="M203.063 226.625L374.001 191.591" stroke="#FFC045" stroke-width="0.25" stroke-linecap="round" stroke-linejoin="round"/>
<path d="M374.001 215.08L203.063 241.182" stroke="#FFC045" stroke-width="0.25" stroke-linecap="round" stroke-linejoin="round"/>
<path d="M271.863 243.181L216.39 237.777" stroke="#FFC045" stroke-width="0.25" stroke-linecap="round" stroke-linejoin="round"/>
<path d="M221.864 222.772L216.39 221.978" stroke="#FFC045" stroke-width="0.25" stroke-linecap="round" stroke-linejoin="round"/>
<path d="M279.383 269.535L403.09 262.342" stroke="#FFC045" stroke-width="0.25" stroke-linecap="round" stroke-linejoin="round"/>
<path d="M280.386 374.211L401.779 395.401" stroke="#FFC045" stroke-width="0.25" stroke-linecap="round" stroke-linejoin="round"/>
<path d="M276.144 141.359L527.993 50.7344" stroke="#FFC045" stroke-width="0.25" stroke-linecap="round" stroke-linejoin="round"/>
<path d="M276.144 198.445L563.656 138.939" stroke="#FFC045" stroke-width="0.25" stroke-linecap="round" stroke-linejoin="round"/>
<path d="M295.949 20.1631L378.375 65.6834" stroke="#FFC045" stroke-width="0.25" stroke-linecap="round" stroke-linejoin="round"/>
<path d="M216.822 79.1365L343.417 4.80957" stroke="#FFC045" stroke-width="0.25" stroke-linecap="round" stroke-linejoin="round"/>
<path d="M216.39 84.8889L352.449 10.3193" stroke="#FFC045" stroke-width="0.25" stroke-linecap="round" stroke-linejoin="round"/>
<path d="M270.636 71.0666L171.258 31.9541" stroke="#FFC045" stroke-width="0.25" stroke-linecap="round" stroke-linejoin="round"/>
<path d="M253.738 57.9295L175.438 24.8457" stroke="#FFC045" stroke-width="0.25" stroke-linecap="round" stroke-linejoin="round"/>
<path d="M313.132 181.537L607.867 253.854" stroke="#FFC045" stroke-width="0.25" stroke-linecap="round" stroke-linejoin="round"/>
<path d="M65.4597 284.016L285.616 263.556" stroke="#FFC045" stroke-width="0.25" stroke-linecap="round" stroke-linejoin="round"/>
<path d="M82.5964 315.714L285.622 324.498" stroke="#FFC045" stroke-width="0.25" stroke-linecap="round" stroke-linejoin="round"/>
<path d="M183.617 336.348L81.5168 325.863" stroke="#FFC045" stroke-width="0.25" stroke-linecap="round" stroke-linejoin="round"/>
<path d="M199.885 358.556L82.5964 339.706" stroke="#FFC045" stroke-width="0.25" stroke-linecap="round" stroke-linejoin="round"/>
<path d="M276.144 128.43L75.8096 206.303" stroke="#FFC045" stroke-width="0.25" stroke-linecap="round" stroke-linejoin="round"/>
<path d="M191.758 164.972L144.249 183.243" stroke="#FFC045" stroke-width="0.25" stroke-linecap="round" stroke-linejoin="round"/>
<path d="M68.3749 223.103L285.609 147.364" stroke="#FFC045" stroke-width="0.25" stroke-linecap="round" stroke-linejoin="round"/>
<path d="M68.3749 251.363L285.609 203.327" stroke="#FFC045" stroke-width="0.25" stroke-linecap="round" stroke-linejoin="round"/>
<path d="M285.611 150.277L74.0512 222.374" stroke="#FFC045" stroke-width="0.25" stroke-linecap="round" stroke-linejoin="round"/>
<path d="M335.514 193.68V226.925" stroke="#FFC045" stroke-width="0.25" stroke-linecap="round" stroke-linejoin="round"/>
<path d="M221.851 219.361V241.775" stroke="#FFC045" stroke-width="0.25" stroke-linecap="round" stroke-linejoin="round"/>
<path d="M302.921 278.489V261.896" stroke="#FFC045" stroke-width="0.25" stroke-linecap="round" stroke-linejoin="round"/>
<path d="M370.79 274.348V257.027" stroke="#FFC045" stroke-width="0.25" stroke-linecap="round" stroke-linejoin="round"/>
<path d="M276.144 0L602.089 188.481" stroke="#FFC045" stroke-width="0.25" stroke-linecap="round" stroke-linejoin="round"/>
<path d="M384.009 69.7575L542.393 1.73633" stroke="#FFC045" stroke-width="0.25" stroke-linecap="round" stroke-linejoin="round"/>
<path d="M304.047 104.098L276.144 116.082" stroke="#FFC045" stroke-width="0.25" stroke-linecap="round" stroke-linejoin="round"/>
<path d="M150.681 138.939V367.366" stroke="#FFC045" stroke-width="0.25" stroke-linecap="round" stroke-linejoin="round"/>
<path d="M253.732 54.9277V67.6453" stroke="#FFC045" stroke-width="0.25" stroke-linecap="round" stroke-linejoin="round"/>
<path d="M307.07 20.1631V41.2255" stroke="#FFC045" stroke-width="0.25" stroke-linecap="round" stroke-linejoin="round"/>
<path d="M46.1657 358.911L1 362.482" stroke="#FFC045" stroke-width="0.25" stroke-linecap="round" stroke-linejoin="round"/>
<path d="M21.4622 370.853L1 372.334" stroke="#FFC045" stroke-width="0.25" stroke-linecap="round" stroke-linejoin="round"/>
<path d="M391.336 414.711V511.226" stroke="#FFC045" stroke-width="0.25" stroke-linecap="round" stroke-linejoin="round"/>
<path d="M391.336 59.7082V0" stroke="#FFC045" stroke-width="0.25" stroke-linecap="round" stroke-linejoin="round"/>
<path d="M285.615 116.082V30.7373" stroke="#FFC045" stroke-width="0.25" stroke-linecap="round" stroke-linejoin="round"/>
<path d="M21.4684 352.128V381.991" stroke="#FFC045" stroke-width="0.25" stroke-linecap="round" stroke-linejoin="round"/>
</svg>
