<svg width="1007" height="1026" viewBox="0 0 1007 1026" fill="none" xmlns="http://www.w3.org/2000/svg">
<g opacity="0.4">
<path opacity="0.5" d="M341.712 438.096L999.826 258.332" stroke="#FFC045" stroke-width="0.3" stroke-miterlimit="10" stroke-linecap="round"/>
<path d="M867.657 91.3984L1006 338.016" stroke="#FFC045" stroke-width="0.5" stroke-miterlimit="10" stroke-linecap="round"/>
<path d="M1006 619.561L588.101 1012.32" stroke="#FFC045" stroke-width="0.5" stroke-miterlimit="10" stroke-linecap="round"/>
<path d="M1006 603.877L588.101 939.615" stroke="#FFC045" stroke-width="0.5" stroke-miterlimit="10" stroke-linecap="round"/>
<path d="M1.00049 402.657L316.657 284.805" stroke="#FFC045" stroke-width="0.5" stroke-miterlimit="10" stroke-linecap="round"/>
<path d="M867.658 447.782L281.493 284.805" stroke="#FFC045" stroke-width="0.5" stroke-miterlimit="10" stroke-linecap="round"/>
<path d="M1.00049 627.397L338.933 732.199" stroke="#FFC045" stroke-width="0.5" stroke-miterlimit="10" stroke-linecap="round"/>
<path d="M640.868 939.614L1.00049 657.334" stroke="#FFC045" stroke-width="0.5" stroke-miterlimit="10" stroke-linecap="round"/>
<path d="M640.868 1012.32L1.00049 687.27" stroke="#FFC045" stroke-width="0.5" stroke-miterlimit="10" stroke-linecap="round"/>
<path d="M616.672 406.467L1006 486.788" stroke="#FFC045" stroke-width="0.5" stroke-miterlimit="10" stroke-linecap="round"/>
<path d="M658.475 409.293L1.00049 497.676" stroke="#FFC045" stroke-width="0.5" stroke-miterlimit="10" stroke-linecap="round"/>
<path d="M1.00049 621.229L676.892 805.613" stroke="#FFC045" stroke-width="0.5" stroke-miterlimit="10" stroke-linecap="round"/>
<path d="M625.919 805.613L1006 582.271" stroke="#FFC045" stroke-width="0.5" stroke-miterlimit="10" stroke-linecap="round"/>
<path d="M931.836 112.783L1.00049 446.628" stroke="#FFC045" stroke-width="0.5" stroke-miterlimit="10" stroke-linecap="round"/>
<path d="M338.933 518.418L1.00049 525.251" stroke="#FFC045" stroke-width="0.5" stroke-miterlimit="10" stroke-linecap="round"/>
<path d="M281.493 518.418L1006 531.076" stroke="#FFC045" stroke-width="0.5" stroke-miterlimit="10" stroke-linecap="round"/>
<path d="M298.609 732.199L1006 553.271" stroke="#FFC045" stroke-width="0.5" stroke-miterlimit="10" stroke-linecap="round"/>
<g opacity="0.5">
<path d="M867.659 83.6826L1006 330.324" stroke="#FFC045" stroke-width="0.3" stroke-miterlimit="10" stroke-linecap="round"/>
<path d="M1006 611.867L588.101 1004.6" stroke="#FFC045" stroke-width="0.3" stroke-miterlimit="10" stroke-linecap="round"/>
<path d="M1006 596.186L588.101 931.898" stroke="#FFC045" stroke-width="0.3" stroke-miterlimit="10" stroke-linecap="round"/>
<path d="M1 394.942L316.656 277.089" stroke="#FFC045" stroke-width="0.3" stroke-miterlimit="10" stroke-linecap="round"/>
<path d="M867.656 440.092L281.492 277.089" stroke="#FFC045" stroke-width="0.3" stroke-miterlimit="10" stroke-linecap="round"/>
<path d="M1 619.706L338.933 724.482" stroke="#FFC045" stroke-width="0.3" stroke-miterlimit="10" stroke-linecap="round"/>
<path d="M640.868 931.897L1 649.642" stroke="#FFC045" stroke-width="0.3" stroke-miterlimit="10" stroke-linecap="round"/>
<path d="M640.868 1004.6L1 679.58" stroke="#FFC045" stroke-width="0.3" stroke-miterlimit="10" stroke-linecap="round"/>
<path d="M616.672 398.773L1006 479.071" stroke="#FFC045" stroke-width="0.3" stroke-miterlimit="10" stroke-linecap="round"/>
<path d="M658.475 401.6L1 489.982" stroke="#FFC045" stroke-width="0.3" stroke-miterlimit="10" stroke-linecap="round"/>
<path d="M1 613.538L676.891 797.899" stroke="#FFC045" stroke-width="0.3" stroke-miterlimit="10" stroke-linecap="round"/>
<path d="M625.918 797.897L1006 574.556" stroke="#FFC045" stroke-width="0.3" stroke-miterlimit="10" stroke-linecap="round"/>
<path d="M931.835 105.067L1 438.913" stroke="#FFC045" stroke-width="0.3" stroke-miterlimit="10" stroke-linecap="round"/>
<path d="M338.933 510.729L1 517.536" stroke="#FFC045" stroke-width="0.3" stroke-miterlimit="10" stroke-linecap="round"/>
<path d="M281.492 510.729L1006 523.385" stroke="#FFC045" stroke-width="0.3" stroke-miterlimit="10" stroke-linecap="round"/>
<path d="M298.608 724.482L1006 545.578" stroke="#FFC045" stroke-width="0.3" stroke-miterlimit="10" stroke-linecap="round"/>
</g>
<g opacity="0.5">
<path d="M867.657 97.293L1006 343.91" stroke="#FFC045" stroke-width="0.3" stroke-miterlimit="10" stroke-linecap="round"/>
<path d="M1006 625.478L588.101 1018.21" stroke="#FFC045" stroke-width="0.3" stroke-miterlimit="10" stroke-linecap="round"/>
<path d="M1006 609.794L588.101 945.507" stroke="#FFC045" stroke-width="0.3" stroke-miterlimit="10" stroke-linecap="round"/>
<path d="M1 408.552L316.656 290.699" stroke="#FFC045" stroke-width="0.3" stroke-miterlimit="10" stroke-linecap="round"/>
<path d="M867.656 453.701L281.492 290.699" stroke="#FFC045" stroke-width="0.3" stroke-miterlimit="10" stroke-linecap="round"/>
<path d="M1 633.316L338.933 738.092" stroke="#FFC045" stroke-width="0.3" stroke-miterlimit="10" stroke-linecap="round"/>
<path d="M640.868 945.507L1 663.252" stroke="#FFC045" stroke-width="0.3" stroke-miterlimit="10" stroke-linecap="round"/>
<path d="M640.868 1018.21L1 693.19" stroke="#FFC045" stroke-width="0.3" stroke-miterlimit="10" stroke-linecap="round"/>
<path d="M616.672 412.387L1006 492.684" stroke="#FFC045" stroke-width="0.3" stroke-miterlimit="10" stroke-linecap="round"/>
<path d="M658.475 415.21L1 503.593" stroke="#FFC045" stroke-width="0.3" stroke-miterlimit="10" stroke-linecap="round"/>
<path d="M1 627.125L676.891 811.511" stroke="#FFC045" stroke-width="0.3" stroke-miterlimit="10" stroke-linecap="round"/>
<path d="M625.918 811.508L1006 588.166" stroke="#FFC045" stroke-width="0.3" stroke-miterlimit="10" stroke-linecap="round"/>
<path d="M931.835 118.677L1 452.522" stroke="#FFC045" stroke-width="0.3" stroke-miterlimit="10" stroke-linecap="round"/>
<path d="M338.933 524.339L1 531.146" stroke="#FFC045" stroke-width="0.3" stroke-miterlimit="10" stroke-linecap="round"/>
<path d="M281.492 524.339L1006 536.996" stroke="#FFC045" stroke-width="0.3" stroke-miterlimit="10" stroke-linecap="round"/>
<path d="M298.608 738.092L1006 559.188" stroke="#FFC045" stroke-width="0.3" stroke-miterlimit="10" stroke-linecap="round"/>
</g>
<path d="M12.0906 399.216V692.948L21.41 697.618V395.75L12.0906 399.216Z" stroke="#FFC045" stroke-width="0.5" stroke-miterlimit="10" stroke-linecap="round"/>
<path d="M21.4119 395.75L31.5181 397.889V694.595L21.4119 697.618" stroke="#FFC045" stroke-width="0.5" stroke-miterlimit="10" stroke-linecap="round"/>
<path d="M320.934 726.544V295.764L341.712 301.54V721.285L320.934 726.544Z" stroke="#FFC045" stroke-width="0.5" stroke-miterlimit="10" stroke-linecap="round"/>
<path d="M320.932 295.764L300.99 301.908V720.375L320.932 726.544V295.764Z" stroke="#FFC045" stroke-width="0.5" stroke-miterlimit="10" stroke-linecap="round"/>
<path d="M418.409 443.112V735.1L433.508 739.204V441.121L418.409 443.112Z" stroke="#FFC045" stroke-width="0.5" stroke-miterlimit="10" stroke-linecap="round"/>
<path d="M433.507 441.121L448.826 443.505V733.698L433.507 739.204" stroke="#FFC045" stroke-width="0.5" stroke-miterlimit="10" stroke-linecap="round"/>
<path d="M642.073 796.103V411.677L620.704 414.38V790.278L642.073 796.103Z" stroke="#FFC045" stroke-width="0.5" stroke-miterlimit="10" stroke-linecap="round"/>
<path d="M642.073 411.677L661.474 415.707V784.699L642.073 796.103V411.677Z" stroke="#FFC045" stroke-width="0.5" stroke-miterlimit="10" stroke-linecap="round"/>
<path d="M888.39 128.363V730.109L899.995 719.197V149.008L888.39 128.363Z" stroke="#FFC045" stroke-miterlimit="10" stroke-linecap="round"/>
<path d="M888.387 128.363L870.29 134.852V727.603L888.387 730.109V128.363Z" stroke="#FFC045" stroke-miterlimit="10" stroke-linecap="round"/>
<path d="M988.295 306.459V636.2L981.361 642.737V294.071L988.295 306.459Z" stroke="#FFC045" stroke-width="0.5" stroke-miterlimit="10" stroke-linecap="round"/>
<path d="M981.359 294.071L970.466 297.758V642.737H981.359" stroke="#FFC045" stroke-width="0.5" stroke-miterlimit="10" stroke-linecap="round"/>
<path d="M556.505 247.395V684.444L572.144 687.294V241.791L556.505 247.395Z" stroke="#FFC045" stroke-width="0.5" stroke-miterlimit="10" stroke-linecap="round"/>
<path d="M572.139 241.791L588.098 250.344V679.797L572.139 687.294V241.791Z" stroke="#FFC045" stroke-width="0.5" stroke-miterlimit="10" stroke-linecap="round"/>
<path d="M903.608 732.199L1.00049 608.03" stroke="#FFC045" stroke-width="0.5" stroke-miterlimit="10" stroke-linecap="round"/>
<path d="M970.469 706.512L820.841 691.077V448.368" stroke="#FFC045" stroke-miterlimit="10" stroke-linecap="round"/>
<path d="M802.104 195.341L634.675 250.911" stroke="#FFC045" stroke-miterlimit="10" stroke-linecap="round"/>
<path d="M645.222 239.533V411.678" stroke="#FFC045" stroke-miterlimit="10" stroke-linecap="round"/>
<path d="M645.222 247.42L679.451 262.338L794.014 226.7" stroke="#FFC045" stroke-miterlimit="10" stroke-linecap="round"/>
<path d="M679.449 262.341V417.429" stroke="#FFC045" stroke-miterlimit="10" stroke-linecap="round"/>
<path d="M691.57 421.875V270.891L794.01 239.53" stroke="#FFC045" stroke-miterlimit="10" stroke-linecap="round"/>
<path d="M691.57 270.895L700.127 275.884L794.01 247.373" stroke="#FFC045" stroke-miterlimit="10" stroke-linecap="round"/>
<path d="M700.13 275.881V423.694" stroke="#FFC045" stroke-miterlimit="10" stroke-linecap="round"/>
<path d="M754.127 251.746V434.804" stroke="#FFC045" stroke-miterlimit="10" stroke-linecap="round"/>
<path d="M761.95 436.424V249.336L768.319 255.161V437.727" stroke="#FFC045" stroke-linecap="round" stroke-linejoin="round"/>
<path d="M915.683 252.484V411.678L960.14 434.24V310.931L915.683 252.484Z" stroke="#FFC045" stroke-miterlimit="10" stroke-linecap="round"/>
<path d="M960.14 310.931H947.527L915.683 277.677" stroke="#FFC045" stroke-miterlimit="10" stroke-linecap="round"/>
<path d="M947.526 310.929V427.453" stroke="#FFC045" stroke-miterlimit="10" stroke-linecap="round"/>
<path d="M943.248 425.686V313.783L915.683 284.805" stroke="#FFC045" stroke-miterlimit="10" stroke-linecap="round"/>
<path opacity="0.1" d="M943.248 313.782H939.806L915.683 290.629" stroke="#FFC045" stroke-miterlimit="10" stroke-linecap="round"/>
<path d="M939.805 313.78V423.915" stroke="#FFC045" stroke-miterlimit="10" stroke-linecap="round"/>
<path d="M600.714 785.656V464.543L460.678 479.143V746.626L496.603 732.198V475.406" stroke="#FFC045" stroke-miterlimit="10" stroke-linecap="round"/>
<path d="M496.576 732.199L600.712 759.039" stroke="#FFC045" stroke-miterlimit="10" stroke-linecap="round"/>
<path d="M543.446 501.019L508.26 503.869V569.075H543.446V501.019Z" stroke="#FFC045" stroke-miterlimit="10" stroke-linecap="round"/>
<path d="M551.044 501.02V569.076H594.296V497.677L551.044 501.02Z" stroke="#FFC045" stroke-miterlimit="10" stroke-linecap="round"/>
<path d="M508.26 577.504H543.446V640.252L508.26 637.868V577.504Z" stroke="#FFC045" stroke-miterlimit="10" stroke-linecap="round"/>
<path d="M551.044 577.504V640.252L594.296 642.734V578.462L551.044 577.504Z" stroke="#FFC045" stroke-miterlimit="10" stroke-linecap="round"/>
<path d="M683.434 464.543V525.447L805.668 527.585V479.854L683.434 464.543Z" stroke="#FFC045" stroke-miterlimit="10" stroke-linecap="round"/>
<path d="M791.947 527.34V478.135" stroke="#FFC045" stroke-miterlimit="10" stroke-linecap="round"/>
<path d="M740.31 471.67V526.455" stroke="#FFC045" stroke-miterlimit="10" stroke-linecap="round"/>
<path d="M750.319 472.925V526.457" stroke="#FFC045" stroke-miterlimit="10" stroke-linecap="round"/>
<path d="M733.13 471.67V526.356" stroke="#FFC045" stroke-miterlimit="10" stroke-linecap="round"/>
<path d="M915.683 493.398V529.504L960.14 530.29V499.69L915.683 493.398Z" stroke="#FFC045" stroke-miterlimit="10" stroke-linecap="round"/>
<path d="M953.303 498.731V530.166" stroke="#FFC045" stroke-miterlimit="10" stroke-linecap="round"/>
<path d="M937.908 496.544V529.897" stroke="#FFC045" stroke-miterlimit="10" stroke-linecap="round"/>
<path d="M931.838 496.053V529.799" stroke="#FFC045" stroke-miterlimit="10" stroke-linecap="round"/>
<path d="M928.048 495.143V529.724" stroke="#FFC045" stroke-miterlimit="10" stroke-linecap="round"/>
<path d="M11.9983 392V662.064L606.72 924.387L888.294 697.875L820.747 690.894L641.981 795.917V411.49L355.145 449.882V717.685" stroke="#FFC045" stroke-width="2" stroke-miterlimit="10" stroke-linecap="round"/>
<path d="M888.413 112.78V462.527" stroke="#FFC045" stroke-width="2" stroke-miterlimit="10" stroke-linecap="round"/>
<path d="M301.653 290.407V519.205H320.932V726.547L355.235 717.87L460.674 746.627" stroke="#FFC045" stroke-width="2" stroke-miterlimit="10" stroke-linecap="round"/>
<path d="M105.262 659.719L31.5181 670.115V525.252L103.86 523.163L105.262 659.719ZM105.262 659.719L320.937 726.547" stroke="#FFC045" stroke-width="2" stroke-miterlimit="10" stroke-linecap="round"/>
<path d="M12.0906 662.25V692.948L606.615 994.915V924.573" stroke="#FFC045" stroke-width="2" stroke-miterlimit="10" stroke-linecap="round"/>
<path d="M606.615 994.914L988.294 636.197V306.456L888.386 128.363L556.503 247.395V361.265L301.656 290.407L12.0906 399.215" stroke="#FFC045" stroke-width="2" stroke-miterlimit="10" stroke-linecap="round"/>
<path d="M556.505 361.268V423.057" stroke="#FFC045" stroke-width="2" stroke-miterlimit="10" stroke-linecap="round"/>
<path d="M888.413 698.061V462.528" stroke="#FFC045" stroke-width="2" stroke-miterlimit="10" stroke-linecap="round"/>
<path d="M642.073 411.677L819.831 448.372L820.838 691.081" stroke="#FFC045" stroke-width="2" stroke-miterlimit="10" stroke-linecap="round"/>
<path d="M357.548 344.97V411.675L536.314 446.625V390.907L357.548 344.97Z" stroke="#FFC045" stroke-miterlimit="10" stroke-linecap="round"/>
<path d="M536.314 390.906L521.903 394.568L522.617 443.946" stroke="#FFC045" stroke-miterlimit="10" stroke-linecap="round"/>
<path d="M521.881 394.545L357.548 353.696" stroke="#FFC045" stroke-miterlimit="10" stroke-linecap="round"/>
<path d="M516.962 442.841V397.666L357.548 358.464" stroke="#FFC045" stroke-miterlimit="10" stroke-linecap="round"/>
<path d="M516.962 397.667H513.004V442.08" stroke="#FFC045" stroke-miterlimit="10" stroke-linecap="round"/>
<path d="M479.807 388.525V435.568" stroke="#FFC045" stroke-miterlimit="10" stroke-linecap="round"/>
<path d="M474.273 387.171V434.067" stroke="#FFC045" stroke-miterlimit="10" stroke-linecap="round"/>
<path d="M470.465 387.171V433.919" stroke="#FFC045" stroke-miterlimit="10" stroke-linecap="round"/>
<path d="M418.409 374.12V423.571" stroke="#FFC045" stroke-miterlimit="10" stroke-linecap="round"/>
<path d="M410.786 422.074V371.542" stroke="#FFC045" stroke-miterlimit="10" stroke-linecap="round"/>
<path d="M406.311 370.433V421.014" stroke="#FFC045" stroke-miterlimit="10" stroke-linecap="round"/>
<path d="M301.659 519.204L103.861 523.161" stroke="#FFC045" stroke-width="2" stroke-miterlimit="10" stroke-linecap="round"/>
<path d="M249.155 357.626V464.321" stroke="#FFC045" stroke-miterlimit="10" stroke-linecap="round"/>
<path d="M169.982 386.016V474.963" stroke="#FFC045" stroke-miterlimit="10" stroke-linecap="round"/>
<path d="M121.907 403.27V481.428" stroke="#FFC045" stroke-miterlimit="10" stroke-linecap="round"/>
<path d="M58.0532 426.153V491.974" stroke="#FFC045" stroke-miterlimit="10" stroke-linecap="round"/>
<path d="M58.0532 426.153L67.5693 427.48V488.729" stroke="#FFC045" stroke-miterlimit="10" stroke-linecap="round"/>
<path d="M67.5671 427.481L121.91 410.006" stroke="#FFC045" stroke-miterlimit="10" stroke-linecap="round"/>
<path d="M169.982 386.016L182.842 387.564V472.973" stroke="#FFC045" stroke-miterlimit="10" stroke-linecap="round"/>
<path d="M182.843 387.566L249.16 364.757" stroke="#FFC045" stroke-miterlimit="10" stroke-linecap="round"/>
<path d="M186.873 472.703V390.047L249.158 369.155" stroke="#FFC045" stroke-miterlimit="10" stroke-linecap="round"/>
<path d="M222.309 378.152V467.936" stroke="#FFC045" stroke-miterlimit="10" stroke-linecap="round"/>
<path d="M227.422 467.248V376.432L231.087 378.152V466.756" stroke="#FFC045" stroke-miterlimit="10" stroke-linecap="round"/>
<path d="M186.873 390.048L189.724 391.251V472.311" stroke="#FFC045" stroke-miterlimit="10" stroke-linecap="round"/>
<path d="M189.727 391.25L222.307 380.779" stroke="#FFC045" stroke-miterlimit="10" stroke-linecap="round"/>
<path d="M231.086 378.152L249.159 372.007" stroke="#FFC045" stroke-miterlimit="10" stroke-linecap="round"/>
<path d="M70.9055 488.286V429.495L121.904 414.281" stroke="#FFC045" stroke-miterlimit="10" stroke-linecap="round"/>
<path d="M96.4053 421.901V484.87" stroke="#FFC045" stroke-miterlimit="10" stroke-linecap="round"/>
<path d="M99.8015 484.403V420.868L102.26 421.901V484.084" stroke="#FFC045" stroke-miterlimit="10" stroke-linecap="round"/>
<path d="M70.9055 429.495L73.1924 430.331V487.967" stroke="#FFC045" stroke-miterlimit="10" stroke-linecap="round"/>
<path d="M73.1941 430.329L96.4067 423.546" stroke="#FFC045" stroke-miterlimit="10" stroke-linecap="round"/>
<path d="M102.26 421.901L121.907 416.077" stroke="#FFC045" stroke-miterlimit="10" stroke-linecap="round"/>
<path d="M21.387 313.78V790.769" stroke="#FFC045" stroke-width="0.3" stroke-miterlimit="10" stroke-linecap="round"/>
<path d="M300.97 224.587V936.05" stroke="#FFC045" stroke-width="0.3" stroke-miterlimit="10" stroke-linecap="round"/>
<path d="M320.934 232.429V956.72" stroke="#FFC045" stroke-width="0.3" stroke-miterlimit="10" stroke-linecap="round"/>
<path d="M555.668 217.461V1025" stroke="#FFC045" stroke-width="0.3" stroke-miterlimit="10" stroke-linecap="round"/>
<path d="M888.413 75.2998V804.386" stroke="#FFC045" stroke-width="0.3" stroke-miterlimit="10" stroke-linecap="round"/>
<path d="M433.507 168.179V774.546" stroke="#FFC045" stroke-width="0.3" stroke-miterlimit="10" stroke-linecap="round"/>
<path d="M988.292 238.226V708.455" stroke="#FFC045" stroke-width="0.3" stroke-miterlimit="10" stroke-linecap="round"/>
<path d="M642.764 355.047V825.276" stroke="#FFC045" stroke-width="0.3" stroke-miterlimit="10" stroke-linecap="round"/>
<path d="M1.00049 369.205L928.05 1" stroke="#FFC045" stroke-width="0.3" stroke-miterlimit="10" stroke-linecap="round"/>
<path d="M1006 294.07L837.484 1" stroke="#FFC045" stroke-width="0.3" stroke-miterlimit="10" stroke-linecap="round"/>
<path d="M794.012 190.722V442.451" stroke="#FFC045" stroke-miterlimit="10" stroke-linecap="round"/>
<path d="M123.655 537H300.995V649.642L123.655 624.915V537Z" stroke="#FFC045" stroke-miterlimit="10" stroke-linecap="round"/>
<path d="M134.893 537V623.122L123.655 624.915" stroke="#FFC045" stroke-miterlimit="10" stroke-linecap="round"/>
<path d="M134.892 623.122L300.97 644.997" stroke="#FFC045" stroke-miterlimit="10" stroke-linecap="round"/>
<path d="M140.274 537V619.705L300.99 638.458" stroke="#FFC045" stroke-miterlimit="10" stroke-linecap="round"/>
<path d="M212.323 537V628.11" stroke="#FFC045" stroke-miterlimit="10" stroke-linecap="round"/>
<path d="M225.626 629.07V537" stroke="#FFC045" stroke-miterlimit="10" stroke-linecap="round"/>
<path d="M220.633 537V629.07" stroke="#FFC045" stroke-miterlimit="10" stroke-linecap="round"/>
<path d="M140.274 619.705H144.331V537" stroke="#FFC045" stroke-miterlimit="10" stroke-linecap="round"/>
</g>
</svg>
