<svg width="24" height="24" viewBox="0 0 24 24" fill="none" xmlns="http://www.w3.org/2000/svg">
<g clip-path="url(#clip0_114_6)">
<path d="M23.4808 1.91899C23.3704 2.0663 23.1817 2.21555 23.0263 2.31691C22.9777 2.34877 22.9606 2.29091 22.9253 2.31121C22.8564 2.35096 22.8242 2.41996 22.7531 2.45629C22.7294 2.46815 22.6922 2.38662 22.6687 2.40042C22.5402 2.47641 22.4586 2.58825 22.3424 2.6792C21.77 3.12707 21.2463 3.60623 20.7028 4.09555C20.5237 4.25695 20.2628 4.41004 20.1105 4.60947C20.0928 4.6328 20.1572 4.67268 20.1576 4.68088C20.162 4.8079 20.0772 4.68232 20.0232 4.70834C19.8093 4.81191 19.6279 4.98365 19.4953 5.15655C19.4945 5.1576 19.4937 5.15864 19.493 5.15967C19.4437 5.23134 19.6059 5.2687 19.4841 5.27595C19.4756 5.27657 19.4368 5.20474 19.4131 5.21666C19.3594 5.24381 19.2926 5.3304 19.2568 5.35734C19.1877 5.40899 19.1783 5.41954 19.1205 5.47602C19.0411 5.55275 18.9208 5.6181 18.8495 5.71441C18.8345 5.73513 18.9149 5.76819 18.896 5.80636C18.8771 5.84454 18.7968 5.91524 18.758 5.92732C18.7191 5.9394 18.6854 5.88397 18.6707 5.87826C18.5473 5.82906 18.5795 6.03588 18.5712 6.05006C18.4166 6.3053 18.1729 6.41295 17.9807 6.60547C17.835 6.75178 17.7014 6.93036 17.5594 7.06621C17.39 7.22784 17.2189 7.33738 17.0634 7.50346C17.0469 7.52092 17.1335 7.56774 17.1135 7.5892C16.9011 7.81716 16.6752 8.02856 16.4109 8.20278C16.3843 8.2202 16.3541 8.1333 16.324 8.14719C16.1414 8.23356 15.813 8.33076 15.9881 8.66563C15.887 8.74677 15.7661 8.84709 15.6332 8.8772C15.56 8.89386 15.54 8.81218 15.5124 8.84576C15.5078 8.85142 15.5029 8.86036 15.4975 8.87361C15.489 8.89423 15.5638 8.93118 15.5468 8.95788C15.4754 9.07026 15.3568 9.15254 15.2947 9.27235C15.2822 9.29685 15.3373 9.34186 15.3411 9.35612C15.3701 9.47318 15.176 9.42581 15.1513 9.43303C14.9642 9.48936 14.901 9.60399 14.786 9.71579C14.7593 9.7417 14.8576 9.77785 14.8344 9.8052C14.7127 9.94616 14.5708 10.0764 14.4124 10.1752C14.377 10.197 14.346 10.1134 14.3262 10.1209C14.2394 10.1546 14.3342 10.2762 14.253 10.3106C14.236 10.318 14.1939 10.2621 14.1863 10.2589C14.0669 10.2092 14.1565 10.3592 14.1502 10.3708C14.0731 10.5201 13.8757 10.4674 13.7841 10.5944C13.7733 10.6098 13.8648 10.6423 13.8305 10.6816C13.6027 10.9437 13.3265 11.1858 13.0344 11.3786C12.9891 11.4087 12.9694 11.3352 12.9613 11.3318C12.8328 11.2807 12.9281 11.426 12.9203 11.4428C12.856 11.5724 12.6645 11.5621 12.7419 11.7713C12.3724 12.061 12.088 12.4333 11.7132 12.7132C11.6209 12.7822 11.5232 12.8455 11.4173 12.9006C11.4107 12.9043 11.3607 12.8358 11.3476 12.8434C11.19 12.9346 11.3059 13.0027 11.3362 13.1977C11.3438 13.2467 11.1447 13.1738 11.1292 13.1694C11.0721 13.153 11.0051 13.0438 10.9911 13.0435C10.8789 13.044 11.1796 13.3263 11.1037 13.4024C11.1008 13.4043 11.0572 13.3407 11.0454 13.3417C11.0089 13.3448 11.0105 13.3858 10.9727 13.3867C10.8855 13.3884 10.7281 13.2625 10.7427 13.4128C10.7448 13.4321 10.9233 13.5843 10.8476 13.6443C10.8173 13.6681 10.7004 13.7907 10.6561 13.8136C10.6119 13.8364 10.5816 13.7601 10.5769 13.7602C10.4161 13.7801 10.4212 13.7166 10.2716 13.6576C10.1224 13.5989 10.3828 13.8342 10.392 13.8803C10.4011 13.9264 10.2768 13.9345 10.2403 13.9306C10.2038 13.9266 10.1902 13.8725 10.1643 13.8755C9.99369 13.8966 10.2453 14.0406 10.253 14.1115C10.2716 14.2792 10.0298 14.1534 9.94358 14.2036C9.92026 14.2172 9.97719 14.244 9.96467 14.2644C9.91453 14.3444 9.81803 14.3262 9.79657 14.4528C9.79303 14.4735 9.84367 14.6439 9.72382 14.6015C9.70664 14.5953 9.67643 14.5339 9.63843 14.5514C9.5816 14.5775 9.49692 14.6421 9.46768 14.702C9.44612 14.7462 9.55929 14.784 9.49445 14.8019C9.46559 14.8098 9.45553 14.7316 9.40498 14.7502C9.35462 14.7686 9.26866 14.8584 9.23673 14.8934C9.2049 14.9283 9.28043 14.9673 9.28159 14.9739C9.28735 15.0123 9.25088 15.104 9.24515 15.1096C8.96651 15.4022 8.60662 15.5691 8.36047 15.8791C8.34107 15.9033 8.41597 15.9492 8.41364 15.9535C8.36422 16.0535 8.26261 15.8341 8.15669 15.8326C8.28675 15.9475 8.23376 15.9561 8.19456 16.0222C8.17578 16.0541 8.23703 16.0878 8.23957 16.0949C8.27401 16.2046 8.15476 16.1377 8.12898 16.1254C8.03404 16.0803 8.08968 16.1902 8.02592 16.1603C7.96252 16.1308 7.93263 16.0229 7.88304 16.0743C7.91274 16.1323 8.06482 16.2094 8.04507 16.2663C8.01448 16.3547 7.93555 16.4372 7.8445 16.5112C7.71427 16.6169 7.55925 16.7051 7.48534 16.768C7.35999 16.8747 7.3306 16.9203 7.24715 16.972C7.09637 17.0655 7.22616 17.1058 7.18925 17.2205C7.15212 17.3355 6.97987 17.0893 6.92397 17.0553C6.86828 17.021 6.90284 17.079 6.86478 17.0677C6.82677 17.0563 6.82499 16.9969 6.78442 17.0189C6.74384 17.0409 6.73822 17.2065 6.77415 17.2646C6.85031 17.3877 6.99345 17.4537 6.87387 17.4998C6.86692 17.5024 6.82737 17.4319 6.80357 17.4446C6.61631 17.5472 6.46314 17.6951 6.28095 17.8024C6.25582 17.817 6.21241 17.738 6.19709 17.7459C6.03731 17.8274 6.18362 17.8874 6.23214 18.0682C6.09443 17.9008 5.96454 17.844 5.87209 17.9347C5.81646 17.9891 5.89256 18.0463 5.90392 18.1288C5.90739 18.1537 5.82271 18.1469 5.84698 18.1853C5.92614 18.3109 6.07747 18.3889 5.93742 18.4377C5.93111 18.4396 5.88823 18.3704 5.87053 18.3813C5.75581 18.4516 5.85187 18.5698 5.76486 18.6827C5.69667 18.7713 5.49195 18.8453 5.39209 18.924C5.22246 18.7506 5.17744 18.8741 5.2615 19.0266C5.19875 19.0796 5.14288 19.1489 5.07056 19.1885C5.04572 19.2022 5.00872 19.1399 5.00093 19.137C4.87951 19.09 4.96938 19.2303 4.96139 19.2473C4.86975 19.4266 4.67217 19.4498 4.62809 19.6643C4.62657 19.672 4.73827 19.7985 4.61671 19.7461C4.60848 19.7424 4.59698 19.6454 4.53197 19.7021C4.46693 19.7587 4.28839 19.8095 4.25914 19.9492C4.25199 19.9829 4.29701 20.1313 4.17996 20.0972C4.16417 20.0925 4.13605 20.0523 4.10906 20.0413C4.02268 20.0065 4.12901 20.141 3.9964 20.069C3.8902 20.0113 3.77947 19.9912 3.73208 20.0654C3.7203 20.0839 3.71243 20.1082 3.70952 20.1392C3.70886 20.144 3.78414 20.2596 3.75585 20.2848C3.7106 20.3251 3.63002 20.3659 3.58599 20.4112C3.56495 20.4329 3.63789 20.4785 3.63527 20.4833C3.52475 20.6602 3.36962 20.7097 3.19272 20.8407C3.16017 20.8646 3.15987 21.0266 3.04133 21.0173C2.91139 21.0074 2.6821 20.6548 2.6135 20.862C2.5856 20.9453 2.8843 21.3849 2.59309 21.2936C2.44661 21.5349 2.16944 21.6163 2.04269 21.8784C2.03695 21.8901 2.11232 22.0208 2.09036 22.0399C2.05757 22.0682 1.99267 22.0368 1.96771 22.0554C1.86191 22.1322 1.81956 22.2569 1.72513 22.3385C1.68939 22.3696 1.65129 22.3081 1.60864 22.3452C1.56607 22.3823 1.60507 22.4744 1.51943 22.4968C1.45452 22.5134 1.27976 22.4201 1.21003 22.4586C1.34014 22.5929 1.30025 22.6273 1.26909 22.7283C1.26316 22.7477 1.32278 22.7801 1.32235 22.7917C1.32162 22.8399 1.26087 22.8244 1.26347 22.8734C1.26402 22.8852 1.30889 22.9306 1.31189 22.9429C1.33912 23.0486 1.17291 23.0117 1.14413 23.0052C1.03442 22.9806 1.07324 23.0592 1.01415 23.0654C0.955114 23.0715 0.970805 22.9898 0.916685 23.0118C0.804577 23.0575 0.710457 23.1662 0.628224 23.2443C0.595692 23.2758 0.677767 23.3142 0.67451 23.3201C0.623656 23.4015 0.492684 23.4043 0.576035 23.561C0.219849 23.2965 0.566255 23.631 0.409597 23.6634C0.397125 23.6658 0.240898 23.5285 0.247942 23.4784C0.255005 23.4283 0.34423 23.4308 0.35031 23.3575C0.351822 23.3403 0.26811 23.1489 0.267121 23.1333C0.259525 23.0107 0.486978 23.2218 0.502066 23.2308C0.666556 23.3263 0.58416 23.1124 0.591237 23.0849C0.623543 22.9587 0.721684 22.9223 0.754457 22.8225C0.776149 22.7576 0.636736 22.6097 0.675159 22.5801C0.802802 22.4815 1.04268 22.6424 0.975511 22.362C0.961307 22.3021 0.781587 22.1678 0.986939 22.2094C0.999867 22.212 1.17361 22.2642 1.1373 22.1576C1.1327 22.1442 1.08681 22.0986 1.08878 22.0889C1.10291 22.0251 1.16537 22.0355 1.19039 21.9756C1.21541 21.9156 1.24046 21.8385 1.30447 21.8056C1.34298 21.7856 1.46573 21.8334 1.5006 21.8402C1.60023 21.8609 1.544 21.7199 1.64129 21.7683C1.73915 21.8168 1.80203 21.9761 1.91403 21.9587C1.79754 21.8374 1.68103 21.7099 1.56533 21.5865C1.71134 21.4488 1.88934 21.3477 2.02639 21.2002C2.04326 21.1818 1.96131 21.1359 1.97775 21.1145C2.04739 21.0246 2.16265 21.0004 2.22725 20.8995C2.27702 20.8212 2.27959 20.6833 2.32952 20.5992C2.50646 20.6944 2.55968 20.5488 2.64431 20.489C2.67389 20.468 2.70854 20.5061 2.73837 20.4999C2.85007 20.4759 2.69806 20.3875 2.69774 20.35C2.69681 20.1894 2.97574 20.4547 3.06311 20.3539C3.06783 20.3486 2.98373 20.1426 2.98309 20.1252C2.97753 20.013 3.0424 20.1669 3.0865 20.1442C3.16701 20.1029 3.244 20.0951 3.27301 19.9812C3.28127 19.9477 3.24088 19.8073 3.35129 19.8368C3.36577 19.8406 3.41077 19.8915 3.41786 19.89C3.47361 19.8762 3.47453 19.8379 3.45797 19.7913C3.43757 19.7339 3.39067 19.6638 3.38698 19.6112C3.38033 19.5158 3.55281 19.5513 3.59672 19.5673C3.71071 19.6084 3.60191 19.6284 3.60754 19.638C3.67488 19.7517 3.70925 19.6862 3.75507 19.6557C3.90829 19.7979 3.95281 19.7356 3.80198 19.6235C3.78541 19.6113 3.76948 19.6548 3.75507 19.6557C3.64366 19.4773 3.68377 19.4 3.88398 19.4707C3.97778 19.5038 4.02311 19.6065 4.08817 19.4873C4.11776 19.4332 3.99991 19.3477 4.00908 19.2831C4.03012 19.1355 4.23454 19.1208 4.3065 19.019C4.33262 18.982 4.24622 18.9571 4.26215 18.9299C4.30426 18.8576 4.39648 18.8489 4.43254 18.77C4.43574 18.7628 4.36475 18.7172 4.38187 18.6986C4.51056 18.5564 4.66582 18.4758 4.80828 18.3354C4.87709 18.2675 4.96712 18.1132 5.04436 18.0489C5.1779 17.9371 5.41357 17.8709 5.49779 17.7455C5.55297 17.664 5.47969 17.6207 5.46926 17.5517C5.4488 17.4182 5.68673 17.456 5.72156 17.4639C5.72268 17.4642 5.6776 17.5368 5.7389 17.5353C5.81949 17.5794 5.72116 17.4648 5.72156 17.4639C5.7442 17.4689 5.87493 17.3646 5.88712 17.3301C5.89371 17.3113 5.8314 17.2632 5.83587 17.2545C5.94358 17.0479 6.08694 16.8765 6.27212 16.743C6.27604 16.7413 6.33358 16.8073 6.34203 16.8025C6.46175 16.7377 6.44526 16.6031 6.47648 16.4821C6.50772 16.3612 6.58307 16.3159 6.73414 16.3769C6.77819 16.3062 6.90743 16.2707 6.98326 16.2517C7.0591 16.2328 6.94547 16.106 6.94726 16.0994C6.98683 15.9483 7.0748 15.9045 7.17633 15.843C7.21327 15.8206 7.25202 15.7958 7.29088 15.7627C7.36032 15.7038 7.47013 15.5592 7.52643 15.4766C7.57073 15.4111 7.63198 15.4062 7.66454 15.3376C7.66898 15.3283 7.60852 15.2817 7.60855 15.2776C7.60095 15.1571 7.7047 15.3151 7.73973 15.3268C7.86698 15.3695 7.93836 15.3887 7.97066 15.2764C7.97817 15.2506 7.83829 15.0136 7.85767 14.9722C7.8832 14.9187 7.93583 15.0011 7.96085 14.9434C7.96305 14.9385 7.92064 14.8976 7.94801 14.8739C8.07453 14.7633 8.22802 14.6583 8.34702 14.531C8.36344 14.5137 8.27577 14.4692 8.2984 14.4432C8.40464 14.3213 8.53213 14.1987 8.6742 14.1185C8.70938 14.099 8.73851 14.1624 8.75819 14.1702C8.87779 14.2169 8.80868 14.0444 8.81491 14.0336C8.96034 13.772 9.22541 13.7256 9.38075 13.4662C9.38898 13.4518 9.34637 13.2354 9.49622 13.3077C9.50626 13.3125 9.65825 13.3878 9.61447 13.2761C9.61172 13.2692 9.52932 13.2346 9.57699 13.1988C9.62465 13.1631 9.65271 13.0569 9.77433 13.0638C9.81273 13.0659 9.96899 13.1364 9.93277 12.9918C9.92999 12.982 9.80926 12.6941 9.98007 12.8052C10.0081 12.8236 10.1522 12.9778 10.1404 12.8367C10.1379 12.8096 10.0822 12.7987 10.0939 12.7454C10.1118 12.6635 10.2178 12.6374 10.2126 12.5097C10.2115 12.4873 10.1557 12.3405 10.2691 12.3809C10.2868 12.3872 10.3258 12.4479 10.3506 12.4342C10.469 12.3693 10.5316 12.2401 10.6591 12.1815C10.7041 12.1606 10.7678 12.258 10.8237 12.2452C10.8796 12.2324 10.9696 12.184 10.9687 12.1113C10.9679 12.0385 10.8003 11.9495 10.8439 11.8853C10.8495 11.8771 10.8552 11.869 10.861 11.861C11.0515 11.5973 11.3479 11.4433 11.5855 11.2271C11.6218 11.1941 11.5471 11.1769 11.5973 11.125C11.7823 10.9331 12.0646 10.5648 12.3256 10.4989C12.5347 10.446 12.4294 10.6704 12.5613 10.6021C12.6248 10.569 12.5278 10.3675 12.5348 10.3512C12.601 10.1895 12.7462 10.1765 12.8285 10.0537C12.8454 10.0283 12.7642 9.98859 12.7793 9.96766C12.8304 9.89563 12.9221 9.85793 12.9759 9.79419C13 9.76545 12.9489 9.72412 12.9768 9.70342C13.0428 9.65332 13.1136 9.62137 13.2135 9.60802C13.2226 9.6068 13.2453 9.69905 13.2904 9.65821C13.3633 9.59195 13.4923 9.5483 13.5282 9.42418C13.5387 9.38717 13.4341 9.28069 13.558 9.30254C13.584 9.30706 13.697 9.44746 13.647 9.2785C13.6388 9.2503 13.591 9.00271 13.7352 9.04891C13.7732 9.06104 13.9099 9.13174 13.9221 9.08689C13.9234 9.08042 13.8512 9.03923 13.8693 9.01005C13.9342 8.90815 14.0277 8.82681 14.0956 8.72337C14.1136 8.69565 14.0209 8.67105 14.0496 8.6316C14.1285 8.523 14.2606 8.42087 14.3706 8.34755C14.4113 8.32062 14.4365 8.39259 14.4443 8.39542C14.5698 8.44188 14.4771 8.30239 14.4835 8.28249C14.5246 8.1603 14.6413 8.15267 14.7021 8.06298C14.7191 8.03837 14.649 7.99774 14.6482 7.98866C14.648 7.986 14.6479 7.98352 14.6479 7.98122C14.6467 7.90512 14.7114 8.02844 14.7484 8.01273C14.8555 7.96773 14.9358 7.87852 15.0056 7.79456C15.0312 7.76363 14.9352 7.73119 14.9589 7.70418C15.0979 7.5431 15.26 7.39329 15.4418 7.28227C15.4761 7.26148 15.5082 7.32825 15.5252 7.3338C15.6438 7.37319 15.5941 7.20741 15.5972 7.18379C15.6111 7.07622 15.6783 7.09634 15.7238 7.03456C15.9451 6.73199 16.2975 6.43752 16.5627 6.20814C16.9079 5.90896 17.2049 5.70596 17.5 5.38649C17.5188 5.36625 17.4333 5.32018 17.4487 5.30189C17.6502 5.06869 17.8899 4.88042 18.0887 4.64365C18.1051 4.62434 18.017 4.58776 18.0413 4.55466C18.0906 4.48635 18.1685 4.41521 18.2479 4.37563C18.2865 4.3562 18.3011 4.44861 18.3389 4.42797C18.4269 4.38002 18.5043 4.31157 18.5641 4.23172C18.5642 4.23154 18.5644 4.23135 18.5645 4.23118C18.5883 4.1974 18.4811 4.17849 18.5187 4.13933C18.7756 3.86981 19.0231 3.60036 19.3716 3.41696C19.3955 3.40439 19.5411 3.51797 19.555 3.45436C19.522 3.41548 19.4795 3.37333 19.4424 3.33362C19.8048 2.92978 20.2289 2.59548 20.6201 2.21822C20.6366 2.2023 20.5399 2.16163 20.5715 2.13046C20.754 1.94996 20.9112 1.75468 21.1651 1.63725C21.1902 1.6255 21.3016 1.75574 21.3376 1.68318C21.3438 1.67027 21.4095 1.5724 21.4044 1.52504C21.4033 1.51821 21.332 1.47675 21.3567 1.44876C21.5013 1.28708 21.6746 1.1395 21.8619 1.0211C21.8922 1.0021 21.926 1.08841 21.9481 1.07539C22.1046 0.982632 22.1946 0.801422 22.3682 0.736843C22.4846 0.693831 22.5589 0.827119 22.7034 0.886915C22.7238 0.895333 22.7754 0.848259 22.8374 0.905138C22.9934 1.04804 23.1332 1.2356 23.3023 1.38509C23.3387 1.41734 23.3678 1.31426 23.4116 1.43633C23.4144 1.44461 23.394 1.52006 23.4103 1.55999C23.4216 1.58766 23.4968 1.6333 23.5049 1.67496C23.513 1.7166 23.4439 1.68436 23.4454 1.74141C23.4472 1.79881 23.5282 1.85535 23.4808 1.91899ZM7.32379 16.1655C7.42541 16.1794 7.22039 15.9614 7.22354 16.0595C7.22393 16.0645 7.31869 16.1649 7.32379 16.1655ZM2.04807 21.508C2.19871 21.544 2.10081 21.3675 1.98829 21.336C1.87587 21.3045 2.00231 21.4972 2.04807 21.508ZM1.5213 22.171C1.6619 22.1775 1.37255 21.8671 1.36137 21.9995C1.36062 22.0071 1.51311 22.1707 1.5213 22.171ZM22.536 1.11245C22.5394 1.11465 22.5777 1.08191 22.5757 1.07827C22.5274 0.992208 22.4511 1.05773 22.536 1.11245ZM1.00515 22.8355C1.06665 22.8551 1.08008 22.748 1.00362 22.7236C0.942106 22.7039 0.928616 22.8111 1.00515 22.8355ZM9.83851 14.1022C9.84235 14.1047 9.87063 14.0821 9.8523 14.0648C9.7932 14.0091 9.77399 14.0607 9.83851 14.1022ZM0.00531335 23.8422C0.164833 23.7053 0.502442 23.8631 0.313066 23.9966C0.278776 24.0208 0.297067 23.8546 0.237525 23.8695C0.128756 23.8968 0.239097 24.0976 0.0862721 24.0837C0.0584392 24.081 -0.00433686 23.8495 0.0052313 23.8416C0.00525867 23.8418 0.00528599 23.842 0.00531335 23.8422ZM7.60309 16.3943C7.60676 16.3962 7.64463 16.3636 7.6427 16.36C7.59463 16.2738 7.5183 16.3394 7.60309 16.3943ZM11.4537 12.7486C11.4616 12.7526 11.5489 12.6764 11.5461 12.6683C11.4789 12.5158 11.3021 12.6695 11.4537 12.7486ZM5.38611 18.9208C5.41523 19.0268 5.37722 19.0807 5.26176 19.0265C5.30445 18.9928 5.34356 18.955 5.38611 18.9208Z" fill="white"/>
<path d="M24.4849 0.249218C24.5081 0.38425 24.4766 0.559964 24.4356 0.693148C24.4228 0.734891 24.3703 0.712525 24.3591 0.74129C24.3373 0.797552 24.3622 0.850908 24.3365 0.906419C24.3277 0.92481 24.2442 0.89995 24.237 0.919275C24.1976 1.02518 24.2169 1.12655 24.1968 1.23425C24.0977 1.76473 24.0553 2.28733 24.0058 2.82536C23.9896 3.00276 23.9089 3.21715 23.9384 3.40135C23.9419 3.42286 24.0158 3.41162 24.0218 3.41582C24.1135 3.48169 23.9652 3.45733 23.9445 3.49866C23.863 3.6627 23.8524 3.84677 23.8775 4.00679C23.8777 4.00776 23.8779 4.0087 23.8781 4.00961C23.8926 4.07306 24.035 4.01087 23.9526 4.0765C23.947 4.08113 23.8691 4.06229 23.8604 4.08072C23.8407 4.12251 23.853 4.20283 23.8461 4.2354C23.8325 4.29815 23.8331 4.30859 23.8309 4.36816C23.8273 4.44959 23.7864 4.54568 23.8023 4.63346C23.806 4.6522 23.8867 4.62917 23.8997 4.65921C23.9127 4.68928 23.9043 4.76793 23.8848 4.79409C23.8653 4.82027 23.8025 4.80764 23.788 4.81204C23.6652 4.84818 23.8322 4.94284 23.8362 4.95465C23.9029 5.16994 23.8028 5.35128 23.7989 5.55197C23.7962 5.70434 23.8246 5.86791 23.8172 6.01279C23.8081 6.18539 23.7616 6.33086 23.7655 6.4988C23.7659 6.51653 23.8606 6.49774 23.8612 6.51939C23.8674 6.74939 23.8524 6.97736 23.7839 7.20482C23.777 7.22763 23.6948 7.19633 23.6829 7.21902C23.6119 7.35795 23.4438 7.57661 23.8026 7.66747C23.7865 7.76225 23.7696 7.87736 23.6952 7.9609C23.6542 8.00698 23.583 7.97327 23.5866 8.00528C23.5871 8.01067 23.5899 8.01795 23.5952 8.02778C23.6035 8.04315 23.6829 8.02504 23.6893 8.04797C23.7162 8.1445 23.6884 8.24877 23.7272 8.34451C23.7353 8.36399 23.8062 8.36019 23.8188 8.36593C23.9211 8.41404 23.7489 8.48701 23.7361 8.50343C23.641 8.62852 23.6754 8.72204 23.6707 8.84032C23.6696 8.86777 23.7653 8.83729 23.7677 8.86377C23.7784 9.00109 23.7673 9.14288 23.7223 9.27618C23.7121 9.30583 23.6317 9.2767 23.6226 9.29078C23.5838 9.35289 23.7365 9.37001 23.7022 9.42964C23.6951 9.44222 23.6259 9.43361 23.6183 9.43577C23.498 9.46958 23.6667 9.50465 23.6702 9.51406C23.7189 9.63324 23.5405 9.70505 23.5631 9.81968C23.566 9.83339 23.6544 9.80444 23.6572 9.84288C23.6761 10.099 23.6463 10.3689 23.5709 10.6204C23.5593 10.6596 23.494 10.6301 23.4858 10.6324C23.358 10.6701 23.5275 10.6998 23.5337 10.7127C23.5777 10.8149 23.4331 10.9065 23.6342 10.9794C23.5706 11.3222 23.6256 11.6661 23.5515 12.0063C23.5332 12.0901 23.5071 12.1736 23.4695 12.2568C23.4673 12.2622 23.3837 12.2508 23.3797 12.2615C23.3299 12.3903 23.4606 12.3681 23.6181 12.4573C23.6576 12.4798 23.464 12.5416 23.4498 12.5471C23.3974 12.5673 23.2733 12.5427 23.2631 12.5496C23.1829 12.6067 23.5952 12.6057 23.5937 12.6851C23.5929 12.6875 23.5173 12.6755 23.5096 12.682C23.4855 12.7022 23.5152 12.7234 23.4887 12.743C23.4273 12.7881 23.2267 12.8004 23.3418 12.8736C23.3567 12.8829 23.5908 12.8741 23.5783 12.9447C23.5731 12.9728 23.5745 13.0979 23.5586 13.1326C23.5427 13.1672 23.4679 13.1417 23.4646 13.1441C23.363 13.2363 23.3225 13.1997 23.174 13.2438C23.0261 13.288 23.3768 13.2822 23.4155 13.3023C23.4541 13.3223 23.3705 13.3897 23.3415 13.4061C23.3126 13.4225 23.2652 13.4003 23.2487 13.4151C23.1409 13.513 23.4217 13.4627 23.4766 13.4968C23.6067 13.5773 23.3456 13.6324 23.3186 13.7031C23.3114 13.7222 23.3709 13.7077 23.3761 13.725C23.3958 13.7933 23.3138 13.8325 23.3866 13.9113C23.3984 13.9242 23.5534 13.9899 23.4379 14.0279C23.4212 14.0333 23.3568 14.0157 23.3417 14.0444C23.319 14.0871 23.3032 14.1648 23.3239 14.2117C23.3392 14.2463 23.4467 14.2092 23.4127 14.2517C23.3975 14.2706 23.3358 14.2337 23.3125 14.2693C23.2891 14.3047 23.2899 14.3965 23.2914 14.4315C23.2928 14.4664 23.3742 14.449 23.3796 14.4519C23.4105 14.4696 23.4481 14.5373 23.4479 14.5432C23.4516 14.8414 23.3094 15.1134 23.3485 15.4046C23.3515 15.4274 23.4371 15.414 23.4385 15.4175C23.4726 15.4962 23.2469 15.43 23.1698 15.4829C23.3432 15.4786 23.3112 15.5101 23.329 15.5654C23.3378 15.5921 23.4052 15.5791 23.412 15.5816C23.513 15.623 23.3809 15.6476 23.3538 15.6541C23.2542 15.678 23.3707 15.7087 23.3041 15.725C23.238 15.7413 23.1415 15.6986 23.1417 15.7513C23.2034 15.7674 23.3662 15.7317 23.3916 15.7722C23.4312 15.8351 23.432 15.9194 23.4181 16.0052C23.3982 16.128 23.3484 16.2539 23.3391 16.3251C23.3234 16.4459 23.334 16.4853 23.3101 16.5553C23.267 16.6819 23.3881 16.6377 23.4415 16.718C23.4949 16.7985 23.1999 16.7538 23.1361 16.7639C23.0723 16.7737 23.1374 16.7873 23.1022 16.8005C23.067 16.8137 23.0244 16.7827 23.0106 16.8151C22.9968 16.8475 23.108 16.9392 23.1743 16.9521C23.3146 16.9796 23.4633 16.9424 23.4096 17.0277C23.4064 17.0327 23.3289 17.0149 23.3207 17.0338C23.2576 17.1837 23.2507 17.3407 23.1945 17.4907C23.1867 17.5113 23.1006 17.4909 23.095 17.5029C23.0371 17.6276 23.1839 17.5857 23.3445 17.658C23.1292 17.638 22.9964 17.6734 22.9932 17.7689C22.9911 17.8264 23.0855 17.8184 23.1511 17.857C23.1709 17.8685 23.1054 17.9078 23.1495 17.9161C23.2939 17.9434 23.4568 17.9085 23.3902 18.0056C23.387 18.0099 23.308 17.9945 23.3029 18.0093C23.2695 18.1052 23.4207 18.1199 23.4369 18.2246C23.4496 18.3067 23.3542 18.4502 23.3372 18.543C23.0948 18.536 23.1485 18.6251 23.3149 18.6643C23.3068 18.7246 23.3149 18.79 23.2906 18.848C23.2823 18.8679 23.2123 18.8532 23.2047 18.8556C23.0849 18.892 23.247 18.9217 23.2531 18.9348C23.3121 19.0775 23.1865 19.1901 23.3041 19.3276C23.3084 19.3324 23.4767 19.3437 23.3529 19.3772C23.3444 19.3794 23.2687 19.3332 23.2614 19.3965C23.2542 19.4599 23.1614 19.5777 23.2376 19.6674C23.2559 19.6892 23.3916 19.7459 23.2838 19.787C23.2692 19.7925 23.221 19.7852 23.194 19.7929C23.1077 19.8181 23.2777 19.8363 23.1324 19.8649C23.016 19.8878 22.9225 19.9332 22.9402 19.997C22.9446 20.0129 22.9558 20.0299 22.9753 20.048C22.9782 20.0509 23.1127 20.0748 23.11 20.1027C23.1055 20.1472 23.0761 20.21 23.076 20.2566C23.076 20.2789 23.1601 20.2664 23.1615 20.2703C23.2054 20.4212 23.1285 20.5264 23.0927 20.6864C23.086 20.7157 23.1985 20.8028 23.1069 20.8579C23.0067 20.9184 22.5967 20.8455 22.6917 20.9915C22.7297 21.0503 23.2501 21.1347 22.9775 21.2334C23.0403 21.4371 22.898 21.6213 22.9895 21.8261C22.9935 21.8354 23.1386 21.8672 23.1361 21.8886C23.1322 21.9204 23.0638 21.9365 23.0588 21.9591C23.0364 22.054 23.0928 22.1423 23.0818 22.234C23.0778 22.2688 23.0077 22.2552 23.0029 22.2967C22.9981 22.3381 23.0902 22.3678 23.0443 22.4232C23.0093 22.465 22.8189 22.5036 22.7957 22.5596C22.9825 22.5657 22.9779 22.6044 23.0258 22.6743C23.035 22.6878 23.1004 22.6749 23.1081 22.6813C23.1411 22.7076 23.0867 22.73 23.1227 22.755C23.1314 22.7611 23.1952 22.7627 23.2059 22.7677C23.299 22.8107 23.154 22.8751 23.1288 22.8862C23.0329 22.9286 23.1155 22.9511 23.0774 22.9844C23.0393 23.0177 22.9937 22.9658 22.9701 23.0051C22.9215 23.0865 22.9296 23.1925 22.9249 23.2761C22.9235 23.3094 23.0091 23.2885 23.0109 23.2933C23.0311 23.3627 22.939 23.4306 23.1079 23.4724C22.6681 23.5111 23.1496 23.5149 23.0597 23.6117C23.0524 23.6194 22.8447 23.6249 22.8149 23.5945C22.7851 23.564 22.8509 23.5201 22.8043 23.4777C22.7933 23.4677 22.6001 23.4075 22.5884 23.3996C22.4976 23.3377 22.8079 23.3356 22.825 23.3328C23.0095 23.3006 22.8015 23.2277 22.7874 23.2093C22.7228 23.1253 22.7679 23.0559 22.722 22.9858C22.6923 22.94 22.4893 22.9313 22.4962 22.8959C22.5193 22.7783 22.8034 22.743 22.5601 22.6267C22.5082 22.6018 22.2857 22.6208 22.462 22.539C22.4732 22.5339 22.6342 22.4738 22.5339 22.435C22.5213 22.4301 22.4566 22.4289 22.4513 22.4227C22.417 22.3813 22.4691 22.3553 22.4453 22.3104C22.4216 22.2656 22.3859 22.2115 22.4089 22.1614C22.4226 22.1311 22.544 22.0945 22.5738 22.0805C22.6597 22.0411 22.5212 21.994 22.6247 21.9706C22.7287 21.947 22.8848 22.0006 22.953 21.9345C22.785 21.9285 22.6126 21.9191 22.4436 21.9116C22.4526 21.7637 22.51 21.6192 22.5057 21.4706C22.505 21.4521 22.4142 21.4691 22.4111 21.4493C22.3985 21.3657 22.4644 21.2943 22.4406 21.2075C22.4218 21.1402 22.3276 21.0649 22.305 20.9945C22.4982 20.9558 22.4351 20.8508 22.4542 20.7758C22.4608 20.7495 22.5122 20.7524 22.5293 20.7339C22.5928 20.6644 22.4221 20.6941 22.3958 20.6741C22.2833 20.5884 22.6682 20.5893 22.6608 20.4909C22.6605 20.4857 22.4567 20.4179 22.4442 20.4088C22.362 20.3515 22.5157 20.4011 22.5316 20.3666C22.5606 20.3036 22.6105 20.2604 22.552 20.1846C22.5347 20.1625 22.4079 20.1076 22.5077 20.0674C22.5207 20.0621 22.5885 20.0666 22.5925 20.0622C22.6229 20.0266 22.5969 20.0056 22.5526 19.9889C22.498 19.9685 22.4155 19.9547 22.3763 19.9283C22.3051 19.8805 22.4536 19.8121 22.4963 19.7985C22.6067 19.7627 22.5425 19.8286 22.5533 19.8309C22.6808 19.8577 22.6598 19.8052 22.6715 19.7656C22.8804 19.7641 22.869 19.7082 22.6827 19.7245C22.6623 19.7264 22.6812 19.7578 22.6715 19.7656C22.4673 19.7263 22.4423 19.6646 22.6352 19.6009C22.7256 19.5712 22.8296 19.6033 22.7933 19.5063C22.777 19.4623 22.6328 19.4762 22.5944 19.4369C22.5068 19.347 22.6433 19.2355 22.6241 19.1444C22.6171 19.1113 22.5377 19.1417 22.5302 19.1191C22.5101 19.0589 22.5703 19.0075 22.5413 18.9469C22.5385 18.9414 22.4559 18.953 22.4552 18.9343C22.4486 18.7928 22.5039 18.6708 22.5085 18.5233C22.5106 18.452 22.4678 18.3236 22.4785 18.2499C22.4965 18.1222 22.6196 17.9672 22.5928 17.8572C22.5756 17.7855 22.4929 17.7995 22.4374 17.7677C22.3298 17.7065 22.5269 17.6061 22.5574 17.5927C22.5584 17.5923 22.5766 17.6541 22.6195 17.6222C22.7081 17.605 22.5578 17.5934 22.5574 17.5927C22.5771 17.5839 22.5984 17.4617 22.5831 17.437C22.5748 17.4236 22.4965 17.4293 22.4937 17.4224C22.4272 17.257 22.4108 17.0923 22.4508 16.9268C22.4524 16.9239 22.5396 16.9301 22.5424 16.9233C22.5832 16.8279 22.4777 16.764 22.4159 16.6833C22.3542 16.6026 22.3767 16.5401 22.5276 16.4962C22.51 16.4359 22.5781 16.3513 22.6193 16.3027C22.6606 16.2541 22.4907 16.2437 22.4874 16.2393C22.4106 16.1381 22.4433 16.07 22.4734 15.9856C22.4843 15.9548 22.4949 15.9219 22.4997 15.8844C22.5086 15.8176 22.4867 15.6843 22.4696 15.6115C22.4558 15.5539 22.4964 15.5202 22.472 15.4669C22.4688 15.4597 22.3929 15.4653 22.3901 15.4631C22.3007 15.4023 22.4852 15.4345 22.5185 15.423C22.6396 15.3814 22.7042 15.3555 22.6492 15.2789C22.6366 15.2612 22.3712 15.205 22.3563 15.1729C22.3374 15.1313 22.4326 15.1488 22.4103 15.1052C22.4085 15.1015 22.3496 15.101 22.3527 15.0744C22.3666 14.951 22.4037 14.8168 22.4005 14.6882C22.4002 14.6706 22.3063 14.6911 22.3045 14.6657C22.2959 14.5465 22.302 14.4161 22.3482 14.301C22.3599 14.2727 22.4249 14.2919 22.4445 14.2862C22.5628 14.2506 22.3931 14.1931 22.3901 14.1841C22.3124 13.97 22.4704 13.8108 22.4013 13.5928C22.3972 13.5809 22.216 13.4864 22.3739 13.4493C22.3844 13.4467 22.5459 13.41 22.4368 13.3724C22.43 13.37 22.3467 13.3932 22.3561 13.3499C22.3654 13.3065 22.3116 13.2353 22.4037 13.1774C22.4328 13.1591 22.594 13.1176 22.4674 13.0585C22.4585 13.0546 22.1715 12.9614 22.3714 12.9344C22.4043 12.93 22.6152 12.9397 22.5084 12.87C22.4877 12.8567 22.4402 12.8791 22.4115 12.8445C22.3673 12.7916 22.4253 12.7238 22.3326 12.658C22.3162 12.6465 22.174 12.596 22.2835 12.5602C22.3006 12.5546 22.3708 12.5674 22.3791 12.5475C22.4189 12.4526 22.3739 12.3516 22.4246 12.2555C22.4425 12.2215 22.556 12.2414 22.5872 12.2062C22.6184 12.171 22.6493 12.0994 22.598 12.0608C22.5468 12.0222 22.3645 12.0594 22.3512 12.0029C22.3494 11.9957 22.3479 11.9884 22.3465 11.9812C22.2997 11.7431 22.4053 11.5103 22.4253 11.2738C22.4284 11.2377 22.3628 11.2663 22.3627 11.213C22.362 11.0163 22.3082 10.6756 22.4497 10.5079C22.563 10.3735 22.6436 10.5473 22.6907 10.4437C22.7132 10.3938 22.5034 10.3349 22.497 10.3226C22.432 10.2023 22.5272 10.1216 22.5008 10.0141C22.4953 9.99185 22.4093 10.0117 22.4056 9.99285C22.3921 9.92832 22.4317 9.86162 22.426 9.80011C22.4232 9.77251 22.3578 9.77622 22.3634 9.75099C22.376 9.69061 22.4045 9.63758 22.467 9.57976C22.4726 9.57449 22.5531 9.6125 22.5571 9.56772C22.5632 9.49523 22.6255 9.4064 22.5649 9.32159C22.5466 9.29642 22.3974 9.29234 22.5016 9.24123C22.5234 9.2305 22.7023 9.24849 22.5487 9.18322C22.5232 9.17225 22.3165 9.06368 22.4522 9.01534C22.4879 9.00258 22.6353 8.9712 22.6129 8.94092C22.6093 8.9368 22.5288 8.95132 22.5215 8.92647C22.4971 8.83891 22.5076 8.74789 22.4843 8.65797C22.478 8.63396 22.3943 8.66778 22.3874 8.63205C22.3685 8.53377 22.3922 8.41205 22.4201 8.31692C22.4306 8.28185 22.4988 8.30766 22.5063 8.30525C22.6288 8.26651 22.4652 8.23868 22.4559 8.22479C22.4003 8.13839 22.4788 8.07512 22.46 7.99617C22.4551 7.97438 22.3765 7.98812 22.3696 7.98366C22.3676 7.9823 22.3658 7.98103 22.3642 7.97981C22.3104 7.93956 22.4427 7.97293 22.4583 7.94575C22.5038 7.86733 22.4993 7.77875 22.491 7.69831C22.4878 7.66876 22.3964 7.69999 22.3946 7.6735C22.3822 7.51663 22.3943 7.35407 22.4475 7.20235C22.4577 7.17378 22.5272 7.19333 22.5433 7.18767C22.6558 7.14868 22.5048 7.08495 22.4905 7.07071C22.4256 7.00597 22.4879 6.98265 22.4775 6.92645C22.4258 6.65192 22.4738 6.31528 22.5044 6.0578C22.544 5.72226 22.6159 5.46275 22.6053 5.14178C22.6047 5.12138 22.5113 5.13999 22.5096 5.12238C22.4919 4.89512 22.5329 4.67261 22.5108 4.4448C22.5092 4.42611 22.4205 4.45116 22.4148 4.4211C22.4027 4.35942 22.4091 4.28175 22.4386 4.22027C22.4528 4.19028 22.5275 4.23246 22.5403 4.20224C22.5701 4.13187 22.578 4.05594 22.5654 3.98275C22.5653 3.98259 22.5653 3.98242 22.5653 3.98226C22.5588 3.95208 22.4687 3.99631 22.4685 3.95619C22.4653 3.68137 22.4554 3.41133 22.5779 3.13624C22.5863 3.11738 22.7698 3.10451 22.7356 3.06332C22.6848 3.05921 22.625 3.05813 22.5706 3.05567C22.5497 2.65527 22.6215 2.26088 22.6396 1.86018C22.6404 1.84328 22.5427 1.87047 22.5436 1.83775C22.549 1.64837 22.526 1.46389 22.6265 1.27215C22.6363 1.25313 22.8069 1.26655 22.7822 1.20936C22.7777 1.19927 22.7567 1.11348 22.7201 1.09064C22.7146 1.08753 22.6346 1.10144 22.6328 1.07389C22.624 0.913872 22.6457 0.74682 22.6977 0.588341C22.7063 0.562767 22.7906 0.591948 22.7974 0.573748C22.8452 0.444635 22.7836 0.30183 22.8633 0.179165C22.9169 0.0970633 23.063 0.130917 23.2084 0.0897238C23.2289 0.0838963 23.2332 0.0324544 23.3173 0.0315414C23.5287 0.0291052 23.7596 0.0588753 23.985 0.0533304C24.0336 0.0521783 23.9828 -0.0178946 24.0992 0.025391C24.107 0.0284078 24.1448 0.0792323 24.1843 0.0923794C24.2117 0.101529 24.2974 0.0878541 24.3323 0.106086C24.3671 0.124316 24.295 0.142051 24.3358 0.171923C24.3771 0.201793 24.4746 0.191068 24.4849 0.249218ZM22.8037 16.0838C22.8863 16.0397 22.5874 16.0267 22.6579 16.0778C22.6617 16.0802 22.7997 16.0861 22.8037 16.0838ZM22.7355 21.6248C22.8687 21.5676 22.6756 21.5226 22.5729 21.5627C22.4702 21.6029 22.6952 21.6422 22.7355 21.6248ZM22.8189 22.2475C22.9243 22.1797 22.5005 22.1599 22.5847 22.2366C22.5895 22.241 22.8128 22.2515 22.8189 22.2475ZM23.2452 0.295568C23.2492 0.295018 23.2538 0.258072 23.2499 0.257105C23.1554 0.23541 23.1462 0.309289 23.2452 0.295568ZM22.9109 22.8656C22.9687 22.845 22.9038 22.7807 22.8319 22.8064C22.7741 22.827 22.839 22.8914 22.9109 22.8656ZM23.1726 13.7019C23.1771 13.7013 23.1817 13.6748 23.1565 13.6749C23.0753 13.675 23.0974 13.7124 23.1726 13.7019ZM22.894 23.9127C22.9132 23.7583 23.2654 23.6718 23.2224 23.8394C23.2146 23.8698 23.112 23.7714 23.0796 23.8095C23.0206 23.8794 23.2396 23.9311 23.1202 24.0012C23.0984 24.0138 22.8921 23.9214 22.8935 23.9124C22.8937 23.9125 22.8938 23.9126 22.894 23.9127ZM23.1634 16.0649C23.1674 16.0641 23.1719 16.0274 23.168 16.0265C23.0735 16.0046 23.0644 16.0785 23.1634 16.0649ZM23.3898 12.1568C23.3983 12.155 23.4079 12.0698 23.4002 12.0669C23.2459 12.0192 23.2259 12.1912 23.3898 12.1568ZM23.3307 18.5443C23.4254 18.5864 23.4356 18.6346 23.315 18.6641C23.3222 18.6244 23.324 18.5843 23.3307 18.5443Z" fill="white"/>
<path d="M23.7714 1.98983C23.6369 2.01588 23.4606 1.98803 23.3266 1.94979C23.2846 1.93793 23.3059 1.88492 23.2769 1.87435C23.2202 1.85374 23.1674 1.87974 23.1114 1.85519C23.0928 1.84679 23.1159 1.76283 23.0965 1.75594C22.9898 1.71884 22.8889 1.74022 22.7808 1.72238C22.2485 1.63431 21.7252 1.6028 21.1864 1.56454C21.0087 1.552 20.7928 1.47579 20.6093 1.50912C20.5878 1.51308 20.6006 1.58678 20.5965 1.59286C20.5326 1.68585 20.5539 1.53707 20.5121 1.5173C20.3465 1.43925 20.1622 1.43246 20.0028 1.4609C20.0018 1.46108 20.0009 1.46128 20 1.46151C19.9369 1.47733 20.002 1.61844 19.9347 1.53744C19.9299 1.53189 19.9472 1.45362 19.9286 1.44528C19.8864 1.4265 19.8063 1.44049 19.7736 1.43429C19.7106 1.42194 19.7002 1.42273 19.6406 1.42184C19.5592 1.41994 19.4623 1.38103 19.3748 1.39877C19.3562 1.40279 19.3809 1.48301 19.3511 1.49667C19.3213 1.5103 19.2426 1.5035 19.216 1.48458C19.1894 1.46566 19.2007 1.4026 19.196 1.38815C19.1574 1.26615 19.0662 1.43512 19.0545 1.43929C18.8407 1.51049 18.6574 1.41424 18.4567 1.41451C18.3043 1.41493 18.1414 1.4467 17.9964 1.44235C17.8237 1.43684 17.6773 1.39337 17.5095 1.40084C17.4918 1.40154 17.5126 1.49587 17.491 1.49691C17.2612 1.50789 17.033 1.49761 16.8042 1.43392C16.7813 1.42745 16.8108 1.34463 16.7879 1.33322C16.6476 1.26515 16.4255 1.10164 16.3422 1.46224C16.2471 1.44816 16.1317 1.43361 16.0466 1.36093C15.9997 1.32089 16.0319 1.24906 16 1.25327C15.9946 1.25398 15.9874 1.25686 15.9777 1.26242C15.9625 1.27099 15.9822 1.35001 15.9595 1.3569C15.8635 1.38582 15.7587 1.36014 15.6638 1.40096C15.6445 1.40945 15.6498 1.48026 15.6443 1.49301C15.5984 1.59626 15.5219 1.42557 15.5052 1.41317C15.3782 1.32068 15.2854 1.35708 15.1671 1.35482C15.1396 1.35426 15.1721 1.44936 15.1456 1.45223C15.0086 1.46586 14.8667 1.45769 14.7325 1.41549C14.7026 1.40588 14.7301 1.32487 14.7158 1.31613C14.6529 1.27858 14.639 1.43158 14.5787 1.39852C14.5659 1.39175 14.5731 1.3224 14.5708 1.31478C14.5345 1.19522 14.5029 1.36463 14.4936 1.36837C14.3755 1.41948 14.3 1.24262 14.1859 1.26766C14.1722 1.27084 14.203 1.35859 14.1647 1.36215C13.909 1.38637 13.6387 1.36227 13.3856 1.29208C13.3463 1.28128 13.3744 1.21537 13.3719 1.20724C13.3316 1.08027 13.3054 1.25039 13.2926 1.2568C13.1914 1.30292 13.0969 1.16025 13.0281 1.36288C12.6842 1.30646 12.3416 1.36857 12 1.30153C11.9159 1.28503 11.8318 1.26069 11.7478 1.22482C11.7424 1.22272 11.7521 1.13893 11.7413 1.1351C11.6115 1.08805 11.6364 1.21827 11.5505 1.37753C11.5289 1.41752 11.4631 1.22524 11.4573 1.21115C11.436 1.15921 11.458 1.03456 11.4509 1.0245C11.3921 0.945518 11.4017 1.35774 11.3224 1.35787C11.3199 1.35719 11.3303 1.28131 11.3237 1.27377C11.303 1.25008 11.2825 1.28023 11.2622 1.25411C11.2159 1.19368 11.1994 0.993374 11.1287 1.10995C11.1197 1.12508 11.1334 1.35891 11.0626 1.34786C11.0343 1.34326 10.9094 1.34727 10.8743 1.33212C10.8394 1.31698 10.8634 1.24163 10.8609 1.23837C10.7666 1.13873 10.8024 1.09743 10.7551 0.949916C10.7079 0.802957 10.721 1.15347 10.7018 1.19259C10.6825 1.2316 10.6134 1.14939 10.5964 1.12081C10.5794 1.09222 10.6006 1.04434 10.5855 1.02816C10.4854 0.922455 10.5416 1.20214 10.5086 1.25778C10.4308 1.3895 10.3703 1.12956 10.2991 1.10409C10.2799 1.09721 10.2956 1.15642 10.2784 1.16195C10.2105 1.1831 10.1697 1.10199 10.0924 1.17636C10.0797 1.18848 10.0173 1.34476 9.97684 1.23007C9.97112 1.21353 9.98739 1.14875 9.95844 1.13424C9.9152 1.11247 9.83729 1.09831 9.79081 1.11996C9.75649 1.13598 9.79583 1.24272 9.75263 1.20956C9.73343 1.19475 9.76902 1.13231 9.73295 1.10971C9.69708 1.08711 9.60534 1.08985 9.57044 1.09201C9.5356 1.09421 9.55467 1.17517 9.55186 1.18063C9.53482 1.21187 9.46795 1.25092 9.46204 1.25082C9.164 1.2607 8.88916 1.12423 8.59897 1.1694C8.5762 1.17283 8.59137 1.2582 8.5879 1.25961C8.50994 1.29538 8.5714 1.06838 8.51694 0.992397C8.52481 1.16565 8.49266 1.13428 8.43775 1.15328C8.41128 1.16258 8.4257 1.22967 8.42328 1.23654C8.38404 1.33843 8.35671 1.20682 8.34967 1.1799C8.32369 1.08086 8.2954 1.19788 8.27771 1.13168C8.26004 1.06597 8.30072 0.968566 8.24805 0.969814C8.23328 1.03183 8.27238 1.19391 8.2324 1.22018C8.17031 1.26107 8.08609 1.26359 8 1.25149C7.87689 1.23418 7.74998 1.18694 7.67859 1.17916C7.55753 1.16597 7.51842 1.17741 7.44788 1.15499C7.32045 1.11447 7.36715 1.23472 7.28803 1.28976C7.20867 1.34479 7.24725 1.04892 7.23584 0.985317C7.22464 0.921741 7.21242 0.987186 7.19849 0.952236C7.18461 0.917294 7.21466 0.874048 7.18201 0.860928C7.14933 0.84782 7.06002 0.960925 7.04843 1.02743C7.02395 1.16833 7.0642 1.31621 6.97775 1.26425C6.97279 1.26116 6.98891 1.18336 6.96988 1.1755C6.81867 1.11561 6.66158 1.1119 6.51056 1.05892C6.4898 1.05152 6.50836 0.964971 6.49628 0.959682C6.3704 0.904324 6.4154 1.05026 6.34641 1.21237C6.3619 0.996631 6.32375 0.864643 6.22821 0.863369C6.17078 0.862528 6.18067 0.95675 6.14352 1.02316C6.13238 1.04318 6.09175 0.978481 6.08438 1.02279C6.0601 1.16764 6.09837 1.32979 5.99988 1.26522C5.99556 1.26215 6.00931 1.18287 5.99439 1.17807C5.89786 1.14664 5.88632 1.29814 5.78198 1.31649C5.7002 1.33089 5.55476 1.2385 5.46164 1.22348C5.4636 0.980925 5.37564 1.03647 5.33996 1.2037C5.27953 1.19685 5.21426 1.20631 5.15585 1.18319C5.13575 1.17531 5.14896 1.10509 5.14642 1.0975C5.10755 0.978469 5.08128 1.14117 5.06824 1.14755C4.92686 1.20955 4.81168 1.08624 4.67675 1.20675C4.67197 1.21109 4.66421 1.37957 4.62814 1.25656C4.6258 1.24808 4.67037 1.17142 4.6069 1.16549C4.54342 1.15955 4.42376 1.06923 4.33563 1.1473C4.3143 1.1661 4.26036 1.30287 4.21707 1.19601C4.2113 1.1815 4.21761 1.13318 4.20929 1.10629C4.18237 1.02061 4.16768 1.1909 4.13604 1.04623C4.11071 0.930374 4.06346 0.837814 4 0.856808C3.98422 0.861531 3.96744 0.873153 3.94973 0.893032C3.9469 0.895934 3.92586 1.03091 3.89791 1.02877C3.85329 1.02525 3.78996 0.997133 3.74337 0.998012C3.72107 0.998482 3.73534 1.08229 3.73147 1.08383C3.58149 1.13079 3.47475 1.05607 3.31408 1.02365C3.28463 1.01754 3.19999 1.13183 3.14297 1.04147C3.08036 0.942555 3.1447 0.531087 3.00079 0.629117C2.94274 0.668326 2.86926 1.19035 2.76495 0.919887C2.56265 0.986905 2.37556 0.848485 2.17269 0.944179C2.16357 0.948419 2.13472 1.09411 2.11327 1.09213C2.08143 1.0889 2.06396 1.02081 2.04122 1.01632C1.94595 0.995812 1.85878 1.05407 1.76693 1.04501C1.73206 1.04172 1.74425 0.971308 1.70266 0.967372C1.66109 0.963503 1.63338 1.05622 1.57705 1.01144C1.53451 0.977308 1.49197 0.787802 1.43551 0.765713C1.43336 0.95264 1.39457 0.94879 1.32564 0.998134C1.31239 1.00771 1.3266 1.07277 1.32033 1.08065C1.29483 1.11419 1.27122 1.06026 1.247 1.09677C1.24111 1.10553 1.24083 1.16937 1.23601 1.18014C1.19506 1.27415 1.12758 1.13056 1.11599 1.10556C1.07157 1.0106 1.05081 1.09363 1.01674 1.05624C0.982728 1.01885 1.03359 0.972116 0.993856 0.949428C0.911495 0.902501 0.805679 0.912811 0.722035 0.909878C0.688662 0.909101 0.711428 0.994313 0.706654 0.996181C0.637643 1.01779 0.567855 0.927152 0.529591 1.09689C0.481745 0.658012 0.487973 1.13946 0.389332 1.0516C0.381559 1.04449 0.371677 0.836953 0.401509 0.806484C0.43134 0.776044 0.476572 0.840918 0.517964 0.793423C0.527767 0.782277 0.583908 0.587797 0.591572 0.576016C0.651581 0.483946 0.660082 0.794089 0.663258 0.811123C0.699262 0.994954 0.767869 0.785439 0.785939 0.770962C0.868593 0.704627 0.938821 0.748243 1.00796 0.700894C1.05317 0.670292 1.0576 0.467137 1.0931 0.473355C1.21113 0.493909 1.25233 0.777311 1.36355 0.531583C1.38739 0.479174 1.36369 0.257132 1.44915 0.43173C1.45452 0.442737 1.51796 0.602462 1.55462 0.501432C1.55922 0.488693 1.55907 0.423982 1.56515 0.418546C1.60584 0.383383 1.63297 0.434936 1.6773 0.410245C1.72162 0.385555 1.77492 0.348746 1.82552 0.370695C1.85602 0.383819 1.89515 0.504385 1.90975 0.533902C1.95097 0.618934 1.99517 0.479517 2.02071 0.582486C2.04647 0.685973 1.99612 0.843134 2.06365 0.91C2.06615 0.741876 2.0719 0.569313 2.07592 0.400236C2.22392 0.406155 2.36954 0.460519 2.51803 0.453092C2.53644 0.452003 2.51761 0.361619 2.53735 0.358121C2.62061 0.343763 2.69334 0.408194 2.77969 0.382535C2.84653 0.362328 2.91982 0.266631 2.98971 0.242521C3.0324 0.434902 3.13611 0.369593 3.21145 0.387174C3.23784 0.393249 3.23608 0.44463 3.25485 0.461393C3.32565 0.523388 3.29248 0.353382 3.31188 0.326627C3.39517 0.212444 3.40229 0.597243 3.50048 0.587735C3.50569 0.587362 3.56927 0.382247 3.57803 0.369474C3.63367 0.286183 3.58724 0.440866 3.62206 0.456022C3.68565 0.483717 3.72984 0.532701 3.80444 0.472623C3.82619 0.454828 3.87837 0.326982 3.92062 0.42587C3.92617 0.438819 3.9231 0.506617 3.92758 0.510587C3.96386 0.540246 3.98432 0.513832 4 0.469152C4.01932 0.414131 4.03141 0.331409 4.05694 0.291593C4.10322 0.219461 4.17469 0.366519 4.18924 0.408903C4.22729 0.518547 4.16008 0.45576 4.15802 0.46652C4.1338 0.594566 4.18594 0.572521 4.22577 0.583341C4.23153 0.792218 4.28723 0.779681 4.26706 0.593716C4.26476 0.573404 4.23377 0.592883 4.22577 0.583341C4.26073 0.378403 4.32194 0.352156 4.38955 0.543668C4.4212 0.633426 4.39129 0.73808 4.48742 0.699795C4.53105 0.682513 4.5142 0.53869 4.5527 0.499478C4.64067 0.410014 4.75498 0.544177 4.84567 0.523038C4.87859 0.515364 4.84652 0.436636 4.86901 0.428678C4.92872 0.407313 4.98136 0.466384 5.04132 0.436124C5.04675 0.433283 5.03348 0.350871 5.05212 0.349821C5.19346 0.34025 5.31654 0.393035 5.46411 0.394498C5.53541 0.395168 5.66289 0.349716 5.73675 0.358854C5.86477 0.374206 6.02226 0.494045 6.13162 0.464933C6.20295 0.446298 6.1873 0.363869 6.21787 0.307707C6.27684 0.198841 6.38124 0.393844 6.39529 0.424039C6.39572 0.425039 6.33435 0.44447 6.3671 0.486783C6.38614 0.574949 6.3946 0.424422 6.39529 0.424039C6.40453 0.443545 6.52714 0.462257 6.55148 0.4465C6.56471 0.437889 6.55731 0.359792 6.56421 0.356779C6.72816 0.28689 6.8924 0.267041 7.05869 0.303556C7.06161 0.305134 7.0572 0.39249 7.06409 0.395109C7.16035 0.433949 7.222 0.327086 7.30139 0.263639C7.38078 0.200221 7.44373 0.221462 7.49072 0.371427C7.55062 0.352545 7.63656 0.418844 7.68601 0.459073C7.73546 0.499301 7.74236 0.329256 7.74671 0.325895C7.84621 0.247009 7.91492 0.278279 8 0.306553C8.03096 0.316843 8.06409 0.326736 8.10166 0.330778C8.16859 0.338271 8.30137 0.313606 8.37384 0.295011C8.43112 0.280031 8.46563 0.319882 8.51841 0.294401C8.52555 0.290998 8.51834 0.215285 8.52051 0.21237C8.57941 0.121784 8.55111 0.306876 8.56327 0.339933C8.60736 0.460145 8.6346 0.524169 8.71003 0.467618C8.72743 0.454667 8.77811 0.188161 8.80982 0.172575C8.85106 0.1528 8.83549 0.248327 8.87867 0.225187C8.88236 0.223295 8.88159 0.164361 8.90824 0.16696C9.03193 0.178247 9.16678 0.212539 9.29532 0.206633C9.31288 0.206052 9.29037 0.112575 9.31574 0.110197C9.43478 0.099117 9.56525 0.102576 9.68122 0.14633C9.70977 0.157394 9.69187 0.222844 9.69807 0.242277C9.73611 0.359862 9.79006 0.189014 9.79896 0.185759C10.0113 0.103657 10.1738 0.258273 10.3902 0.18466C10.402 0.180339 10.4927 -0.00281389 10.5331 0.154265C10.5359 0.164715 10.5759 0.325423 10.6113 0.215544C10.6135 0.20867 10.5886 0.125935 10.6321 0.134367C10.6756 0.142781 10.7457 0.0875316 10.8055 0.178435C10.8244 0.20707 10.8692 0.367382 10.9257 0.239592C10.9294 0.230671 11.0166 -0.0582804 11.0477 0.141081C11.0528 0.173898 11.0475 0.384868 11.1149 0.276701C11.1278 0.255731 11.1044 0.208673 11.1384 0.179289C11.1904 0.134002 11.2593 0.190506 11.3232 0.0965256C11.3344 0.0798878 11.3818 -0.063306 11.4199 0.0453783C11.4259 0.0624002 11.4145 0.132833 11.4346 0.140715C11.5302 0.178525 11.6304 0.131412 11.7274 0.180144C11.7618 0.197267 11.7442 0.311129 11.7801 0.341642C11.8159 0.372145 11.8881 0.401487 11.9256 0.349455C11.9632 0.297399 11.9222 0.11593 11.9784 0.101408C11.9856 0.0995472 11.9928 0.0978337 12 0.096261C12.237 0.044545 12.4719 0.145256 12.7087 0.160368C12.7449 0.162694 12.7149 0.0977584 12.7682 0.0965256C12.9648 0.0916947 13.3042 0.0308108 13.4748 0.168791C13.6115 0.279306 13.4395 0.363442 13.5439 0.408414C13.5943 0.429868 13.6489 0.21889 13.661 0.212248C13.7799 0.144778 13.8625 0.238236 13.9695 0.209562C13.9916 0.203612 13.9699 0.118101 13.9887 0.113982C14.0529 0.0991522 14.1204 0.13732 14.1818 0.130339C14.2093 0.12701 14.2042 0.0616998 14.2296 0.0667406C14.2902 0.0780495 14.3438 0.105503 14.4029 0.166716C14.4083 0.172294 14.3719 0.253537 14.4168 0.256559C14.4894 0.261219 14.5795 0.321605 14.663 0.259245C14.6878 0.240486 14.6887 0.09122 14.742 0.194304C14.7532 0.215834 14.7389 0.395069 14.801 0.240202C14.8114 0.214467 14.9156 0.00557937 14.9668 0.140227C14.9802 0.175664 15.0147 0.322334 15.0445 0.299284C15.0485 0.295606 15.0323 0.21543 15.057 0.207609C15.144 0.181443 15.2352 0.189997 15.3246 0.164885C15.3485 0.15802 15.313 0.0750543 15.3485 0.067473C15.4464 0.0465026 15.5685 0.0676273 15.6642 0.093596C15.6995 0.103328 15.6751 0.172054 15.6777 0.179533C15.7189 0.301183 15.7433 0.136984 15.757 0.127409C15.8422 0.070079 15.9071 0.14721 15.9856 0.126799C16.0073 0.121374 15.992 0.0430821 15.9963 0.036101C15.9976 0.0341038 15.9988 0.0322855 16 0.0306379C16.0391 -0.0239828 16.0085 0.108947 16.036 0.123991C16.1153 0.167876 16.2038 0.161584 16.284 0.151579C16.3135 0.147789 16.2804 0.0570079 16.3068 0.0546557C16.4634 0.0390125 16.6261 0.0476992 16.7789 0.0977463C16.8076 0.107334 16.7895 0.177239 16.7955 0.193205C16.8368 0.30491 16.8974 0.152543 16.9113 0.138029C16.9747 0.0717587 16.9993 0.133577 17.0553 0.122038C17.3286 0.06459 17.6661 0.105533 17.9241 0.130827C18.2603 0.163381 18.5212 0.229883 18.8418 0.212614C18.8622 0.211604 18.8417 0.11861 18.8592 0.116545C19.086 0.0941272 19.3093 0.130465 19.5365 0.103606C19.5552 0.101566 19.5283 0.013407 19.5582 0.00717046C19.6196 -0.00623971 19.6974 -0.00144799 19.7595 0.0267016C19.7897 0.0402648 19.7491 0.115913 19.7796 0.12802C19.8506 0.156382 19.9266 0.162661 19.9995 0.148527C19.9997 0.148494 19.9998 0.148459 20 0.148421C20.03 0.141361 19.9839 0.0521507 20.024 0.0511156C20.2987 0.0421705 20.5684 0.0266419 20.8459 0.1434C20.8649 0.151419 20.8816 0.33467 20.9221 0.299528C20.9251 0.248671 20.925 0.188848 20.9263 0.134489C21.3261 0.105208 21.7218 0.168735 22.1227 0.178557C22.1396 0.17895 22.1104 0.0818547 22.1431 0.0821214C22.3325 0.0835569 22.5165 0.0566586 22.7102 0.153166C22.7294 0.162604 22.7196 0.333418 22.7762 0.307585C22.7862 0.30287 22.8715 0.28009 22.8936 0.24301C22.8966 0.237416 22.881 0.157687 22.9085 0.155363C23.0683 0.143256 23.2357 0.161458 23.3952 0.210173C23.4209 0.218187 23.3935 0.303093 23.4119 0.309538C23.5419 0.354609 23.6834 0.290066 23.8077 0.367155C23.8908 0.419061 23.86 0.565826 23.9042 0.710293C23.9105 0.730675 23.962 0.733905 23.9647 0.817959C23.9715 1.02932 23.9466 1.26076 23.9568 1.48605C23.959 1.53457 24.0279 1.48231 23.9871 1.59957C23.9842 1.60742 23.9342 1.64634 23.9219 1.68612C23.9133 1.71362 23.9288 1.79911 23.9113 1.83431C23.8938 1.86949 23.8746 1.79783 23.8456 1.8392C23.8166 1.88107 23.8293 1.97832 23.7714 1.98983ZM7.90867 0.638882C7.95445 0.720544 7.96121 0.42145 7.91169 0.493009C7.90929 0.496823 7.9063 0.634876 7.90867 0.638882ZM2.36871 0.686123C2.42856 0.818045 2.46953 0.624068 2.4273 0.522183C2.38508 0.420409 2.35047 0.646133 2.36871 0.686123ZM1.74798 0.782437C1.81794 0.886451 1.82895 0.462323 1.75402 0.548062C1.74966 0.552907 1.74389 0.776397 1.74798 0.782437ZM23.6993 0.751431C23.6999 0.755403 23.7369 0.759274 23.7378 0.755337C23.7575 0.660345 23.6835 0.65267 23.6993 0.751431ZM1.13201 0.887295C1.15385 0.944667 1.21673 0.878437 1.1896 0.807095C1.16775 0.749701 1.10481 0.815927 1.13201 0.887295ZM10.2972 0.958095C10.2979 0.962552 10.3245 0.966565 10.3239 0.941372C10.3221 0.860228 10.2852 0.883129 10.2972 0.958095ZM0.0851026 0.892177C0.239778 0.908142 0.333558 1.25849 0.16512 1.21896C0.134613 1.21181 0.230861 1.10723 0.192036 1.07565C0.120997 1.0181 0.0738219 1.23808 0.00133181 1.1202C-0.0117928 1.09863 0.0762766 0.890488 0.0853772 0.891689C0.0852811 0.891852 0.0851941 0.892015 0.0851026 0.892177ZM7.93503 0.998134C7.93595 1.00209 7.97269 1.00584 7.97358 1.00192C7.99347 0.906964 7.91945 0.899354 7.93503 0.998134ZM11.8462 1.14303C11.8482 1.15146 11.9335 1.15934 11.9363 1.15158C11.9807 0.996301 11.8083 0.979905 11.8462 1.14303ZM5.46017 1.21701C5.42008 1.31253 5.37211 1.32378 5.34015 1.20382C5.37999 1.21019 5.42011 1.21113 5.46017 1.21701Z" fill="white"/>
</g>
<defs>
<clipPath id="clip0_114_6">
<rect width="24" height="24" fill="white"/>
</clipPath>
</defs>
</svg>
