<svg width="433" height="258" viewBox="0 0 433 258" fill="none" xmlns="http://www.w3.org/2000/svg">
<path d="M0 258V244H433V258H0Z" fill="black" style="fill:black;fill-opacity:1;"/>
<path d="M322.527 74L248.209 40V81L276.945 95V181H380V180L322.527 170V74Z" fill="black" style="fill:black;fill-opacity:1;"/>
<path d="M258.118 99V181H212.536V85L258.118 99Z" fill="black" style="fill:black;fill-opacity:1;"/>
<path d="M193.709 62V181H53V180L96.6 171V80L142.182 63V162H156.055V24L231.364 0V75L193.709 62Z" fill="black" style="fill:black;fill-opacity:1;"/>
<path d="M0 232.468V193.532H17.0413C20.0351 193.532 22.5491 193.932 24.5833 194.73C26.6303 195.529 28.172 196.657 29.2083 198.114C30.2574 199.572 30.7819 201.289 30.7819 203.266C30.7819 204.698 30.4621 206.004 29.8224 207.183C29.1955 208.361 28.3127 209.35 27.174 210.148C26.0354 210.934 24.7048 211.479 23.1824 211.783V212.163C24.8712 212.227 26.4064 212.651 27.7881 213.437C29.1699 214.21 30.2701 215.281 31.089 216.65C31.9078 218.006 32.3172 219.603 32.3172 221.441C32.3172 223.57 31.7542 225.465 30.6284 227.125C29.5153 228.786 27.9289 230.091 25.8691 231.042C23.8093 231.992 21.3529 232.468 18.4998 232.468H0ZM10.67 224.027H15.6596C17.4508 224.027 18.7941 223.697 19.6897 223.038C20.5852 222.366 21.033 221.378 21.033 220.072C21.033 219.16 20.8219 218.387 20.3997 217.753C19.9775 217.119 19.3762 216.638 18.5958 216.308C17.8282 215.978 16.9006 215.814 15.8131 215.814H10.67V224.027ZM10.67 209.274H15.0455C15.9795 209.274 16.8047 209.128 17.5211 208.837C18.2376 208.545 18.7941 208.127 19.1907 207.582C19.6001 207.024 19.8048 206.346 19.8048 205.548C19.8048 204.343 19.3698 203.425 18.4998 202.791C17.6299 202.144 16.5296 201.821 15.199 201.821H10.67V209.274Z" fill="black" style="fill:black;fill-opacity:1;"/>
<path d="M59.3569 193.532H70.0269V218.475C70.0269 221.441 69.3104 224.008 67.8775 226.175C66.4574 228.33 64.4744 229.996 61.9284 231.175C59.3825 232.341 56.4271 232.924 53.0623 232.924C49.672 232.924 46.7038 232.341 44.1578 231.175C41.6119 229.996 39.6288 228.33 38.2087 226.175C36.8014 224.008 36.0977 221.441 36.0977 218.475V193.532H46.7678V217.563C46.7678 218.767 47.0364 219.844 47.5738 220.795C48.1111 221.733 48.8531 222.468 49.7999 223C50.7594 223.532 51.8469 223.798 53.0623 223.798C54.2905 223.798 55.378 223.532 56.3247 223C57.2715 222.468 58.0135 221.733 58.5509 220.795C59.0882 219.844 59.3569 218.767 59.3569 217.563V193.532Z" fill="black" style="fill:black;fill-opacity:1;"/>
<path d="M109.104 193.532V232.468H100.199L85.9984 212.011H85.7681V232.468H75.098V193.532H84.1561L98.1269 213.913H98.4339V193.532H109.104Z" fill="black" style="fill:black;fill-opacity:1;"/>
<path d="M112.539 193.532H124.437L132.114 209.35H132.421L140.097 193.532H151.995L137.564 220.224V232.468H126.971V220.224L112.539 193.532Z" fill="black" style="fill:black;fill-opacity:1;"/>
<path d="M190.804 213C190.804 217.335 189.953 220.991 188.251 223.97C186.55 226.935 184.253 229.185 181.362 230.719C178.47 232.24 175.246 233 171.69 233C168.107 233 164.871 232.233 161.979 230.7C159.101 229.153 156.81 226.897 155.109 223.932C153.42 220.953 152.576 217.309 152.576 213C152.576 208.665 153.42 205.015 155.109 202.049C156.81 199.071 159.101 196.821 161.979 195.3C164.871 193.767 168.107 193 171.69 193C175.246 193 178.47 193.767 181.362 195.3C184.253 196.821 186.55 199.071 188.251 202.049C189.953 205.015 190.804 208.665 190.804 213ZM179.827 213C179.827 210.668 179.513 208.703 178.886 207.106C178.272 205.497 177.357 204.28 176.142 203.456C174.939 202.62 173.455 202.202 171.69 202.202C169.924 202.202 168.434 202.62 167.218 203.456C166.016 204.28 165.101 205.497 164.474 207.106C163.86 208.703 163.553 210.668 163.553 213C163.553 215.332 163.86 217.303 164.474 218.913C165.101 220.51 166.016 221.726 167.218 222.563C168.434 223.387 169.924 223.798 171.69 223.798C173.455 223.798 174.939 223.387 176.142 222.563C177.357 221.726 178.272 220.51 178.886 218.913C179.513 217.303 179.827 215.332 179.827 213Z" fill="black" style="fill:black;fill-opacity:1;"/>
<path d="M210.863 232.468H195.74V193.532H210.709C214.752 193.532 218.245 194.312 221.187 195.871C224.143 197.417 226.42 199.648 228.019 202.563C229.631 205.465 230.437 208.944 230.437 213C230.437 217.056 229.638 220.541 228.038 223.456C226.439 226.359 224.175 228.589 221.245 230.148C218.315 231.695 214.854 232.468 210.863 232.468ZM206.41 223.494H210.479C212.424 223.494 214.08 223.184 215.449 222.563C216.831 221.942 217.88 220.871 218.597 219.35C219.326 217.829 219.69 215.712 219.69 213C219.69 210.288 219.319 208.171 218.577 206.65C217.848 205.129 216.773 204.058 215.353 203.437C213.946 202.816 212.219 202.506 210.172 202.506H206.41V223.494Z" fill="black" style="fill:black;fill-opacity:1;"/>
<path d="M246.14 232.468V193.532H256.81V208.741H270.934V193.532H281.604V232.468H270.934V217.259H256.81V232.468H246.14Z" fill="black" style="fill:black;fill-opacity:1;"/>
<path d="M324.745 213C324.745 217.335 323.894 220.991 322.193 223.97C320.491 226.935 318.195 229.185 315.303 230.719C312.412 232.24 309.188 233 305.631 233C302.049 233 298.812 232.233 295.921 230.7C293.042 229.153 290.752 226.897 289.05 223.932C287.362 220.953 286.517 217.309 286.517 213C286.517 208.665 287.362 205.015 289.05 202.049C290.752 199.071 293.042 196.821 295.921 195.3C298.812 193.767 302.049 193 305.631 193C309.188 193 312.412 193.767 315.303 195.3C318.195 196.821 320.491 199.071 322.193 202.049C323.894 205.015 324.745 208.665 324.745 213ZM313.768 213C313.768 210.668 313.455 208.703 312.828 207.106C312.214 205.497 311.299 204.28 310.083 203.456C308.881 202.62 307.397 202.202 305.631 202.202C303.866 202.202 302.375 202.62 301.16 203.456C299.957 204.28 299.042 205.497 298.416 207.106C297.801 208.703 297.494 210.668 297.494 213C297.494 215.332 297.801 217.303 298.416 218.913C299.042 220.51 299.957 221.726 301.16 222.563C302.375 223.387 303.866 223.798 305.631 223.798C307.397 223.798 308.881 223.387 310.083 222.563C311.299 221.726 312.214 220.51 312.828 218.913C313.455 217.303 313.768 215.332 313.768 213Z" fill="black" style="fill:black;fill-opacity:1;"/>
<path d="M352.941 193.532H363.611V218.475C363.611 221.441 362.895 224.008 361.462 226.175C360.042 228.33 358.059 229.996 355.513 231.175C352.967 232.341 350.011 232.924 346.647 232.924C343.256 232.924 340.288 232.341 337.742 231.175C335.196 229.996 333.213 228.33 331.793 226.175C330.386 224.008 329.682 221.441 329.682 218.475V193.532H340.352V217.563C340.352 218.767 340.621 219.844 341.158 220.795C341.695 221.733 342.437 222.468 343.384 223C344.344 223.532 345.431 223.798 346.647 223.798C347.875 223.798 348.962 223.532 349.909 223C350.856 222.468 351.598 221.733 352.135 220.795C352.672 219.844 352.941 218.767 352.941 217.563V193.532Z" fill="black" style="fill:black;fill-opacity:1;"/>
<path d="M389.869 205.7C389.766 204.432 389.287 203.444 388.43 202.734C387.585 202.024 386.299 201.669 384.572 201.669C383.472 201.669 382.57 201.802 381.866 202.068C381.175 202.322 380.664 202.67 380.331 203.114C379.998 203.558 379.826 204.065 379.813 204.635C379.787 205.104 379.871 205.529 380.062 205.909C380.267 206.276 380.587 206.612 381.022 206.916C381.457 207.208 382.013 207.474 382.692 207.715C383.37 207.956 384.176 208.171 385.11 208.361L388.334 209.046C390.509 209.502 392.37 210.104 393.918 210.852C395.466 211.599 396.733 212.48 397.718 213.494C398.703 214.496 399.426 215.624 399.886 216.878C400.36 218.133 400.603 219.502 400.616 220.985C400.603 223.545 399.957 225.712 398.677 227.487C397.398 229.261 395.568 230.611 393.189 231.536C390.822 232.461 387.975 232.924 384.649 232.924C381.233 232.924 378.252 232.423 375.706 231.422C373.173 230.421 371.203 228.881 369.795 226.802C368.401 224.711 367.697 222.037 367.684 218.779H377.817C377.881 219.971 378.182 220.972 378.719 221.783C379.256 222.594 380.011 223.209 380.984 223.627C381.969 224.046 383.139 224.255 384.495 224.255C385.634 224.255 386.587 224.115 387.355 223.837C388.123 223.558 388.705 223.171 389.101 222.677C389.498 222.183 389.703 221.619 389.715 220.985C389.703 220.389 389.504 219.869 389.12 219.426C388.749 218.97 388.135 218.564 387.278 218.209C386.421 217.842 385.263 217.499 383.805 217.183L379.89 216.346C376.41 215.598 373.665 214.35 371.657 212.601C369.661 210.839 368.67 208.437 368.682 205.395C368.67 202.924 369.335 200.763 370.678 198.913C372.034 197.049 373.909 195.598 376.301 194.559C378.706 193.52 381.463 193 384.572 193C387.745 193 390.489 193.526 392.805 194.578C395.121 195.63 396.905 197.113 398.159 199.027C399.426 200.928 400.066 203.152 400.078 205.7H389.869Z" fill="black" style="fill:black;fill-opacity:1;"/>
<path d="M404.674 232.468V193.532H433V202.049H415.345V208.741H431.541V217.259H415.345V223.951H432.923V232.468H404.674Z" fill="black" style="fill:black;fill-opacity:1;"/>
</svg>
