<svg width="544" height="272" viewBox="0 0 544 272" fill="none" xmlns="http://www.w3.org/2000/svg">
<path d="M434.951 0L259 187L154 194L234.704 123.5L157.801 119.5L108.363 21L286.638 58L434.951 0Z" fill="white" style="fill:white;fill-opacity:1;"/>
<path d="M112.358 37L105.866 23.5L0 194H26.966V173.5L112.358 37Z" fill="white" style="fill:white;fill-opacity:1;"/>
<path d="M426.961 13.5L436.948 2L541 194H515V171L426.961 13.5Z" fill="white" style="fill:white;fill-opacity:1;"/>
<path d="M0 271.322V221.742H20.6745C24.3865 221.742 27.4933 222.267 29.9949 223.316C32.5127 224.365 34.401 225.834 35.6598 227.722C36.9348 229.61 37.5723 231.797 37.5723 234.283C37.5723 236.171 37.1769 237.857 36.3861 239.342C35.5953 240.811 34.5059 242.029 33.1179 242.998C31.7299 243.966 30.124 244.644 28.3003 245.031V245.516C30.3016 245.612 32.1495 246.153 33.8442 247.138C35.5549 248.122 36.9268 249.494 37.9597 251.253C38.9926 252.996 39.5091 255.062 39.5091 257.451C39.5091 260.114 38.8312 262.494 37.4755 264.592C36.1198 266.674 34.1589 268.32 31.5927 269.531C29.0266 270.725 25.9117 271.322 22.2481 271.322H0ZM11.9834 261.663H19.3914C21.9898 261.663 23.9023 261.171 25.1289 260.186C26.3716 259.202 26.993 257.83 26.993 256.071C26.993 254.796 26.6944 253.698 26.0973 252.778C25.5001 251.842 24.6528 251.124 23.5553 250.624C22.4579 250.107 21.1425 249.849 19.6093 249.849H11.9834V261.663ZM11.9834 242.126H18.6167C19.924 242.126 21.086 241.908 22.1028 241.473C23.1196 241.037 23.9104 240.407 24.4753 239.584C25.0563 238.761 25.3468 237.769 25.3468 236.607C25.3468 234.944 24.7577 233.637 23.5795 232.685C22.4014 231.733 20.8117 231.256 18.8104 231.256H11.9834V242.126Z" fill="white" style="fill:white;fill-opacity:1;"/>
<path d="M75.2657 221.742H87.225V253.722C87.225 257.418 86.3454 260.638 84.5862 263.382C82.827 266.109 80.3738 268.224 77.2266 269.725C74.0795 271.209 70.4239 271.952 66.26 271.952C62.0476 271.952 58.3678 271.209 55.2207 269.725C52.0735 268.224 49.6284 266.109 47.8854 263.382C46.1423 260.638 45.2708 257.418 45.2708 253.722V221.742H57.2542V252.681C57.2542 254.392 57.6254 255.917 58.3679 257.257C59.1264 258.596 60.1835 259.645 61.5392 260.404C62.8949 261.163 64.4685 261.542 66.26 261.542C68.0514 261.542 69.617 261.163 70.9565 260.404C72.3122 259.645 73.3693 258.596 74.1279 257.257C74.8864 255.917 75.2657 254.392 75.2657 252.681V221.742Z" fill="white" style="fill:white;fill-opacity:1;"/>
<path d="M136.932 221.742V271.322H126.764L107.034 242.707H106.719V271.322H94.7358V221.742H105.049L124.561 250.309H124.973V221.742H136.932Z" fill="white" style="fill:white;fill-opacity:1;"/>
<path d="M141.998 221.742H155.385L165.868 242.489H166.304L176.786 221.742H190.174L172.041 254.763V271.322H160.13V254.763L141.998 221.742Z" fill="white" style="fill:white;fill-opacity:1;"/>
<path d="M238.731 246.532C238.731 251.987 237.682 256.611 235.584 260.404C233.486 264.197 230.645 267.078 227.062 269.047C223.495 271.016 219.493 272 215.054 272C210.6 272 206.589 271.008 203.023 269.022C199.456 267.037 196.623 264.156 194.525 260.38C192.443 256.587 191.402 251.971 191.402 246.532C191.402 241.077 192.443 236.453 194.525 232.661C196.623 228.868 199.456 225.987 203.023 224.018C206.589 222.049 210.6 221.064 215.054 221.064C219.493 221.064 223.495 222.049 227.062 224.018C230.645 225.987 233.486 228.868 235.584 232.661C237.682 236.453 238.731 241.077 238.731 246.532ZM226.481 246.532C226.481 243.304 226.021 240.577 225.101 238.35C224.197 236.122 222.89 234.436 221.179 233.29C219.485 232.144 217.443 231.571 215.054 231.571C212.682 231.571 210.64 232.144 208.93 233.29C207.219 234.436 205.903 236.122 204.983 238.35C204.08 240.577 203.628 243.304 203.628 246.532C203.628 249.76 204.08 252.488 204.983 254.715C205.903 256.942 207.219 258.629 208.93 259.775C210.64 260.921 212.682 261.493 215.054 261.493C217.443 261.493 219.485 260.921 221.179 259.775C222.89 258.629 224.197 256.942 225.101 254.715C226.021 252.488 226.481 249.76 226.481 246.532Z" fill="white" style="fill:white;fill-opacity:1;"/>
<path d="M264.053 271.322H245.727V221.742H264.029C269.081 221.742 273.43 222.735 277.078 224.72C280.741 226.689 283.566 229.53 285.551 233.242C287.536 236.937 288.529 241.36 288.529 246.508C288.529 251.673 287.536 256.111 285.551 259.823C283.582 263.535 280.766 266.384 277.102 268.369C273.438 270.338 269.089 271.322 264.053 271.322ZM257.711 261.106H263.593C266.369 261.106 268.718 260.638 270.638 259.702C272.575 258.75 274.036 257.208 275.02 255.078C276.021 252.932 276.521 250.075 276.521 246.508C276.521 242.941 276.021 240.101 275.02 237.987C274.019 235.856 272.543 234.323 270.59 233.387C268.653 232.435 266.264 231.958 263.424 231.958H257.711V261.106Z" fill="white" style="fill:white;fill-opacity:1;"/>
<path d="M310.171 271.322V221.742H322.155V241.642H341.692V221.742H353.651V271.322H341.692V251.398H322.155V271.322H310.171Z" fill="white" style="fill:white;fill-opacity:1;"/>
<path d="M407.964 246.532C407.964 251.987 406.915 256.611 404.816 260.404C402.718 264.197 399.878 267.078 396.295 269.047C392.728 271.016 388.726 272 384.287 272C379.833 272 375.822 271.008 372.255 269.022C368.689 267.037 365.856 264.156 363.758 260.38C361.676 256.587 360.635 251.971 360.635 246.532C360.635 241.077 361.676 236.453 363.758 232.661C365.856 228.868 368.689 225.987 372.255 224.018C375.822 222.049 379.833 221.064 384.287 221.064C388.726 221.064 392.728 222.049 396.295 224.018C399.878 225.987 402.718 228.868 404.816 232.661C406.915 236.453 407.964 241.077 407.964 246.532ZM395.714 246.532C395.714 243.304 395.254 240.577 394.334 238.35C393.43 236.122 392.123 234.436 390.412 233.29C388.718 232.144 386.676 231.571 384.287 231.571C381.915 231.571 379.873 232.144 378.162 233.29C376.452 234.436 375.136 236.122 374.216 238.35C373.313 240.577 372.861 243.304 372.861 246.532C372.861 249.76 373.313 252.488 374.216 254.715C375.136 256.942 376.452 258.629 378.162 259.775C379.873 260.921 381.915 261.493 384.287 261.493C386.676 261.493 388.718 260.921 390.412 259.775C392.123 258.629 393.43 256.942 394.334 254.715C395.254 252.488 395.714 249.76 395.714 246.532Z" fill="white" style="fill:white;fill-opacity:1;"/>
<path d="M444.955 221.742H456.914V253.722C456.914 257.418 456.035 260.638 454.275 263.382C452.516 266.109 450.063 268.224 446.916 269.725C443.769 271.209 440.113 271.952 435.949 271.952C431.737 271.952 428.057 271.209 424.91 269.725C421.763 268.224 419.318 266.109 417.575 263.382C415.832 260.638 414.96 257.418 414.96 253.722V221.742H426.944V252.681C426.944 254.392 427.315 255.917 428.057 257.257C428.816 258.596 429.873 259.645 431.229 260.404C432.584 261.163 434.158 261.542 435.949 261.542C437.741 261.542 439.306 261.163 440.646 260.404C442.002 259.645 443.059 258.596 443.817 257.257C444.576 255.917 444.955 254.392 444.955 252.681V221.742Z" fill="white" style="fill:white;fill-opacity:1;"/>
<path d="M491.224 236.607C491.063 234.831 490.345 233.451 489.07 232.467C487.811 231.466 486.011 230.966 483.671 230.966C482.122 230.966 480.831 231.168 479.798 231.571C478.765 231.975 477.99 232.531 477.474 233.242C476.957 233.936 476.691 234.734 476.675 235.638C476.643 236.381 476.788 237.034 477.111 237.599C477.449 238.164 477.934 238.664 478.563 239.1C479.209 239.52 479.983 239.891 480.887 240.214C481.791 240.537 482.808 240.819 483.937 241.061L488.198 242.029C490.651 242.562 492.814 243.272 494.686 244.16C496.575 245.047 498.156 246.105 499.431 247.331C500.722 248.558 501.699 249.97 502.361 251.568C503.022 253.166 503.361 254.957 503.377 256.942C503.361 260.073 502.57 262.76 501.005 265.004C499.439 267.247 497.188 268.966 494.251 270.16C491.329 271.355 487.803 271.952 483.671 271.952C479.523 271.952 475.908 271.33 472.826 270.088C469.743 268.845 467.346 266.957 465.635 264.423C463.925 261.889 463.045 258.685 462.997 254.812H474.472C474.569 256.41 474.996 257.741 475.755 258.806C476.513 259.871 477.554 260.678 478.878 261.227C480.217 261.776 481.767 262.05 483.526 262.05C485.14 262.05 486.512 261.832 487.641 261.397C488.787 260.961 489.667 260.356 490.28 259.581C490.894 258.806 491.208 257.919 491.224 256.918C491.208 255.982 490.918 255.183 490.353 254.521C489.788 253.843 488.916 253.262 487.738 252.778C486.576 252.278 485.091 251.818 483.284 251.398L478.103 250.188C473.81 249.203 470.429 247.614 467.96 245.419C465.49 243.208 464.264 240.222 464.28 236.461C464.264 233.395 465.087 230.708 466.749 228.4C468.411 226.092 470.711 224.292 473.649 223.001C476.586 221.71 479.935 221.064 483.695 221.064C487.537 221.064 490.869 221.718 493.694 223.025C496.534 224.317 498.737 226.132 500.303 228.472C501.868 230.813 502.667 233.524 502.699 236.607H491.224Z" fill="white" style="fill:white;fill-opacity:1;"/>
<path d="M509.43 271.322V221.742H544V231.474H521.413V241.642H542.233V251.398H521.413V261.59H544V271.322H509.43Z" fill="white" style="fill:white;fill-opacity:1;"/>
</svg>
