<svg width="452" height="360" viewBox="0 0 452 360" fill="none" xmlns="http://www.w3.org/2000/svg">
<path d="M0 360V340H452V360H0Z" fill="white" style="fill:white;fill-opacity:1;"/>
<path d="M339.334 103.256L260.381 55.8139V113.023L290.91 132.558V252.558H400.39V251.163L339.334 237.209V103.256Z" fill="white" style="fill:white;fill-opacity:1;"/>
<path d="M270.908 138.14V252.558H222.484V118.605L270.908 138.14Z" fill="white" style="fill:white;fill-opacity:1;"/>
<path d="M202.483 86.5116V252.558H53V251.163L99.3187 238.605V111.628L147.743 87.907V226.047H162.481V33.4884L242.486 0V104.651L202.483 86.5116Z" fill="white" style="fill:white;fill-opacity:1;"/>
<path d="M0 316.441V275.559H17.7891C20.9142 275.559 23.5385 275.978 25.662 276.817C27.7988 277.655 29.4081 278.839 30.4899 280.37C31.585 281.9 32.1326 283.703 32.1326 285.779C32.1326 287.283 31.7987 288.654 31.131 289.892C30.4766 291.129 29.5551 292.167 28.3664 293.006C27.1778 293.831 25.7889 294.403 24.1996 294.722V295.122C25.9625 295.188 27.5651 295.634 29.0075 296.459C30.4498 297.271 31.5984 298.395 32.4531 299.833C33.3079 301.257 33.7352 302.933 33.7352 304.863C33.7352 307.099 33.1476 309.088 31.9723 310.832C30.8104 312.575 29.1544 313.946 27.0042 314.944C24.854 315.942 22.2898 316.441 19.3116 316.441H0ZM11.1382 307.578H16.3468C18.2165 307.578 19.6188 307.232 20.5536 306.54C21.4885 305.835 21.9559 304.797 21.9559 303.426C21.9559 302.468 21.7356 301.656 21.2949 300.99C20.8541 300.325 20.2264 299.819 19.4118 299.473C18.6105 299.127 17.6422 298.954 16.507 298.954H11.1382V307.578ZM11.1382 292.087H15.7057C16.6806 292.087 17.5421 291.934 18.2899 291.628C19.0378 291.322 19.6188 290.883 20.0328 290.311C20.4602 289.725 20.6738 289.013 20.6738 288.175C20.6738 286.911 20.2198 285.946 19.3116 285.28C18.4035 284.602 17.2549 284.262 15.866 284.262H11.1382V292.087Z" fill="white" style="fill:white;fill-opacity:1;"/>
<path d="M61.9614 275.559H73.0997V301.749C73.0997 304.863 72.3518 307.558 70.856 309.834C69.3736 312.096 67.3035 313.846 64.6458 315.084C61.9881 316.308 58.9031 316.92 55.3907 316.92C51.8516 316.92 48.7531 316.308 46.0955 315.084C43.4378 313.846 41.3677 312.096 39.8853 309.834C38.4162 307.558 37.6817 304.863 37.6817 301.749V275.559H48.8199V300.791C48.8199 302.055 49.1004 303.186 49.6613 304.184C50.2222 305.169 50.9968 305.941 51.9851 306.5C52.9867 307.059 54.1219 307.338 55.3907 307.338C56.6728 307.338 57.808 307.059 58.7963 306.5C59.7845 305.941 60.5591 305.169 61.1201 304.184C61.681 303.186 61.9614 302.055 61.9614 300.791V275.559Z" fill="white" style="fill:white;fill-opacity:1;"/>
<path d="M113.891 275.559V316.441H104.596L89.772 294.962H89.5316V316.441H78.3933V275.559H87.8488L102.433 296.958H102.753V275.559H113.891Z" fill="white" style="fill:white;fill-opacity:1;"/>
<path d="M117.477 275.559H129.898L137.911 292.167H138.231L146.244 275.559H158.665L143.6 303.586V316.441H132.542V303.586L117.477 275.559Z" fill="white" style="fill:white;fill-opacity:1;"/>
<path d="M199.176 296C199.176 300.551 198.288 304.391 196.512 307.518C194.735 310.632 192.338 312.994 189.32 314.605C186.302 316.202 182.936 317 179.223 317C175.484 317 172.105 316.195 169.087 314.585C166.082 312.961 163.691 310.592 161.915 307.478C160.152 304.351 159.271 300.525 159.271 296C159.271 291.449 160.152 287.616 161.915 284.502C163.691 281.375 166.082 279.012 169.087 277.415C172.105 275.805 175.484 275 179.223 275C182.936 275 186.302 275.805 189.32 277.415C192.338 279.012 194.735 281.375 196.512 284.502C198.288 287.616 199.176 291.449 199.176 296ZM187.717 296C187.717 293.551 187.39 291.489 186.736 289.812C186.095 288.122 185.14 286.844 183.871 285.979C182.616 285.101 181.066 284.662 179.223 284.662C177.38 284.662 175.825 285.101 174.556 285.979C173.3 286.844 172.345 288.122 171.691 289.812C171.05 291.489 170.729 293.551 170.729 296C170.729 298.449 171.05 300.518 171.691 302.208C172.345 303.885 173.3 305.163 174.556 306.041C175.825 306.906 177.38 307.338 179.223 307.338C181.066 307.338 182.616 306.906 183.871 306.041C185.14 305.163 186.095 303.885 186.736 302.208C187.39 300.518 187.717 298.449 187.717 296Z" fill="white" style="fill:white;fill-opacity:1;"/>
<path d="M220.115 316.441H204.33V275.559H219.955C224.175 275.559 227.821 276.377 230.893 278.014C233.978 279.638 236.355 281.98 238.025 285.041C239.707 288.088 240.549 291.741 240.549 296C240.549 300.259 239.714 303.918 238.045 306.979C236.375 310.027 234.011 312.369 230.953 314.006C227.895 315.629 224.282 316.441 220.115 316.441ZM215.468 307.019H219.715C221.745 307.019 223.474 306.693 224.903 306.041C226.346 305.389 227.441 304.264 228.189 302.667C228.95 301.07 229.33 298.848 229.33 296C229.33 293.152 228.943 290.93 228.169 289.333C227.407 287.736 226.285 286.611 224.803 285.959C223.334 285.307 221.531 284.981 219.394 284.981H215.468V307.019Z" fill="white" style="fill:white;fill-opacity:1;"/>
<path d="M256.941 316.441V275.559H268.079V291.529H282.823V275.559H293.961V316.441H282.823V300.471H268.079V316.441H256.941Z" fill="white" style="fill:white;fill-opacity:1;"/>
<path d="M338.995 296C338.995 300.551 338.107 304.391 336.331 307.518C334.554 310.632 332.157 312.994 329.139 314.605C326.121 316.202 322.755 317 319.042 317C315.303 317 311.924 316.195 308.906 314.585C305.901 312.961 303.51 310.592 301.734 307.478C299.971 304.351 299.09 300.525 299.09 296C299.09 291.449 299.971 287.616 301.734 284.502C303.51 281.375 305.901 279.012 308.906 277.415C311.924 275.805 315.303 275 319.042 275C322.755 275 326.121 275.805 329.139 277.415C332.157 279.012 334.554 281.375 336.331 284.502C338.107 287.616 338.995 291.449 338.995 296ZM327.536 296C327.536 293.551 327.209 291.489 326.555 289.812C325.914 288.122 324.959 286.844 323.69 285.979C322.435 285.101 320.885 284.662 319.042 284.662C317.199 284.662 315.643 285.101 314.375 285.979C313.119 286.844 312.164 288.122 311.51 289.812C310.869 291.489 310.548 293.551 310.548 296C310.548 298.449 310.869 300.518 311.51 302.208C312.164 303.885 313.119 305.163 314.375 306.041C315.643 306.906 317.199 307.338 319.042 307.338C320.885 307.338 322.435 306.906 323.69 306.041C324.959 305.163 325.914 303.885 326.555 302.208C327.209 300.518 327.536 298.449 327.536 296Z" fill="white" style="fill:white;fill-opacity:1;"/>
<path d="M368.428 275.559H379.566V301.749C379.566 304.863 378.818 307.558 377.323 309.834C375.84 312.096 373.77 313.846 371.113 315.084C368.455 316.308 365.37 316.92 361.857 316.92C358.318 316.92 355.22 316.308 352.562 315.084C349.905 313.846 347.834 312.096 346.352 309.834C344.883 307.558 344.148 304.863 344.148 301.749V275.559H355.287V300.791C355.287 302.055 355.567 303.186 356.128 304.184C356.689 305.169 357.464 305.941 358.452 306.5C359.453 307.059 360.589 307.338 361.857 307.338C363.139 307.338 364.275 307.059 365.263 306.5C366.251 305.941 367.026 305.169 367.587 304.184C368.148 303.186 368.428 302.055 368.428 300.791V275.559Z" fill="white" style="fill:white;fill-opacity:1;"/>
<path d="M406.976 288.335C406.869 287.004 406.369 285.966 405.474 285.221C404.592 284.475 403.25 284.103 401.447 284.103C400.299 284.103 399.357 284.242 398.623 284.522C397.901 284.788 397.367 285.154 397.02 285.62C396.673 286.086 396.492 286.618 396.479 287.217C396.452 287.709 396.539 288.155 396.74 288.554C396.953 288.94 397.287 289.293 397.741 289.612C398.195 289.918 398.776 290.198 399.484 290.451C400.192 290.703 401.033 290.93 402.008 291.129L405.374 291.848C407.644 292.327 409.587 292.959 411.203 293.744C412.819 294.529 414.141 295.454 415.17 296.519C416.198 297.57 416.953 298.755 417.433 300.072C417.928 301.39 418.181 302.827 418.195 304.384C418.181 307.072 417.507 309.348 416.171 311.211C414.836 313.074 412.926 314.491 410.442 315.463C407.971 316.434 405 316.92 401.527 316.92C397.962 316.92 394.85 316.394 392.192 315.343C389.548 314.292 387.491 312.675 386.022 310.492C384.566 308.297 383.832 305.489 383.818 302.068H394.396C394.462 303.319 394.776 304.371 395.337 305.222C395.898 306.074 396.686 306.72 397.701 307.159C398.729 307.598 399.951 307.817 401.367 307.817C402.556 307.817 403.551 307.671 404.352 307.378C405.153 307.086 405.761 306.68 406.175 306.161C406.589 305.642 406.803 305.049 406.816 304.384C406.803 303.759 406.596 303.213 406.195 302.747C405.808 302.268 405.167 301.842 404.272 301.47C403.377 301.084 402.168 300.724 400.646 300.392L396.559 299.513C392.927 298.728 390.062 297.417 387.965 295.581C385.882 293.731 384.847 291.209 384.86 288.015C384.847 285.42 385.541 283.151 386.943 281.208C388.359 279.252 390.316 277.728 392.813 276.637C395.324 275.546 398.202 275 401.447 275C404.759 275 407.624 275.552 410.041 276.657C412.459 277.761 414.322 279.318 415.63 281.328C416.953 283.324 417.62 285.66 417.634 288.335H406.976Z" fill="white" style="fill:white;fill-opacity:1;"/>
<path d="M422.432 316.441V275.559H452V284.502H433.57V291.529H450.477V300.471H433.57V307.498H451.92V316.441H422.432Z" fill="white" style="fill:white;fill-opacity:1;"/>
</svg>
